<svg id="Слой_1" data-name="Слой 1" xmlns="http://www.w3.org/2000/svg" xmlns:xlink="http://www.w3.org/1999/xlink" viewBox="0 0 1820.63 1162.88"><defs><style>.cls-1{fill:#222;}.cls-2{fill:#dfdfdf;}.cls-3{fill:#707070;}.cls-4{fill:#484848;}.cls-5{fill:url(#Безымянный_градиент);}.cls-6{fill:#a09f9f;}.cls-7{fill:url(#Безымянный_градиент_2);}.cls-8{fill:url(#Безымянный_градиент_3);}.cls-9{fill:url(#Безымянный_градиент_4);}.cls-10{fill:url(#Безымянный_градиент_5);}.cls-11{fill:url(#Безымянный_градиент_6);}.cls-12{fill:url(#Безымянный_градиент_7);}.cls-13{fill:url(#Безымянный_градиент_8);}.cls-14{fill:url(#Безымянный_градиент_9);}.cls-15{fill:url(#Безымянный_градиент_10);}.cls-16{fill:url(#Безымянный_градиент_11);}.cls-17{fill:url(#Безымянный_градиент_12);}.cls-18{fill:url(#Безымянный_градиент_13);}.cls-19{fill:url(#Безымянный_градиент_14);}.cls-20{fill:url(#Безымянный_градиент_15);}.cls-21{fill:url(#Безымянный_градиент_16);}.cls-22{fill:url(#Безымянный_градиент_17);}.cls-23{fill:url(#Безымянный_градиент_18);}.cls-24{fill:url(#Безымянный_градиент_19);}.cls-25{fill:url(#Безымянный_градиент_20);}.cls-26{fill:url(#Безымянный_градиент_21);}.cls-27,.cls-28,.cls-29,.cls-30{fill:#fdfcfb;}.cls-27{opacity:0.26;}.cls-28{opacity:0.42;}.cls-30{opacity:0.33;}.cls-31,.cls-32{font-size:804.25px;font-family:Mynerve-Regular, Mynerve;}.cls-31{fill:#3b3b3b;}.cls-32{fill:#fff;}</style><linearGradient id="Безымянный_градиент" x1="1256.8" y1="638.2" x2="1364.61" y2="620.48" gradientTransform="matrix(1, 0, 0, -1, 0, 1026)" gradientUnits="userSpaceOnUse"><stop offset="0" stop-color="#b0afaf"/><stop offset="1" stop-color="#e2e1e1"/></linearGradient><linearGradient id="Безымянный_градиент_2" x1="661.7" y1="563.84" x2="617.11" y2="568.29" gradientTransform="matrix(1, 0, 0, -1, 0, 1026)" gradientUnits="userSpaceOnUse"><stop offset="0" stop-color="#a6a5a4"/><stop offset="1" stop-color="#dadada"/></linearGradient><linearGradient id="Безымянный_градиент_3" x1="826.44" y1="683.47" x2="859.36" y2="555.72" gradientTransform="matrix(1, 0, 0, -1, 0, 1026)" gradientUnits="userSpaceOnUse"><stop offset="0" stop-color="#777676"/><stop offset="1" stop-color="#a3a2a2"/></linearGradient><linearGradient id="Безымянный_градиент_4" x1="1092.68" y1="710.91" x2="1142.28" y2="714.63" gradientTransform="matrix(1, 0, 0, -1, 0, 1026)" gradientUnits="userSpaceOnUse"><stop offset="0" stop-color="#6f6f6f"/><stop offset="1" stop-color="#a3a1a3"/></linearGradient><linearGradient id="Безымянный_градиент_5" x1="1108.85" y1="689.71" x2="1153.91" y2="695.49" gradientTransform="matrix(1, 0, 0, -1, 0, 1026)" gradientUnits="userSpaceOnUse"><stop offset="0" stop-color="#626161"/><stop offset="1" stop-color="#959595"/></linearGradient><linearGradient id="Безымянный_градиент_6" x1="1159.14" y1="674.09" x2="1164" y2="705.01" gradientTransform="matrix(1, 0, 0, -1, 0, 1026)" gradientUnits="userSpaceOnUse"><stop offset="0" stop-color="#292929"/><stop offset="1" stop-color="#878686"/></linearGradient><linearGradient id="Безымянный_градиент_7" x1="968.62" y1="449.26" x2="955.48" y2="477.21" gradientTransform="matrix(1, 0, 0, -1, 0, 1026)" gradientUnits="userSpaceOnUse"><stop offset="0" stop-color="#454545"/><stop offset="1" stop-color="#696869"/></linearGradient><linearGradient id="Безымянный_градиент_8" x1="955.88" y1="431.05" x2="942.49" y2="460.5" gradientTransform="matrix(1, 0, 0, -1, 0, 1026)" gradientUnits="userSpaceOnUse"><stop offset="0" stop-color="#6d6c6c"/><stop offset="1" stop-color="#9c9b9b"/></linearGradient><linearGradient id="Безымянный_градиент_9" x1="671.86" y1="422.68" x2="534.52" y2="284.38" gradientTransform="matrix(1, 0, 0, -1, 0, 1026)" gradientUnits="userSpaceOnUse"><stop offset="0" stop-color="#828181"/><stop offset="1" stop-color="#d8d7d7"/></linearGradient><linearGradient id="Безымянный_градиент_10" x1="679.41" y1="407.98" x2="494.83" y2="290.49" gradientTransform="matrix(1, 0, 0, -1, 0, 1026)" gradientUnits="userSpaceOnUse"><stop offset="0" stop-color="#6e6d6e"/><stop offset="1" stop-color="#999998"/></linearGradient><linearGradient id="Безымянный_градиент_11" x1="943.74" y1="249.99" x2="1135.62" y2="784.89" gradientTransform="matrix(1, 0, 0, -1, 0, 1026)" gradientUnits="userSpaceOnUse"><stop offset="0" stop-color="#656565"/><stop offset="1" stop-color="#d0d0d0"/></linearGradient><linearGradient id="Безымянный_градиент_12" x1="1223.75" y1="679.59" x2="1276.94" y2="772.2" gradientTransform="matrix(1, 0, 0, -1, 0, 1026)" gradientUnits="userSpaceOnUse"><stop offset="0" stop-color="#b0afaf"/><stop offset="1" stop-color="#dbdbdb"/></linearGradient><linearGradient id="Безымянный_градиент_13" x1="1218.55" y1="709.74" x2="1222.43" y2="740.01" gradientTransform="matrix(1, 0, 0, -1, 0, 1026)" gradientUnits="userSpaceOnUse"><stop offset="0" stop-color="#6b6b6c"/><stop offset="1" stop-color="#9a9999"/></linearGradient><linearGradient id="Безымянный_градиент_14" x1="1179.97" y1="640.08" x2="1308.11" y2="647.88" gradientTransform="matrix(1, 0, 0, -1, 0, 1026)" gradientUnits="userSpaceOnUse"><stop offset="0" stop-color="#686868"/><stop offset="1" stop-color="#a1a1a0"/></linearGradient><linearGradient id="Безымянный_градиент_15" x1="991.2" y1="443.23" x2="976.48" y2="474.22" gradientTransform="matrix(1, 0, 0, -1, 0, 1026)" gradientUnits="userSpaceOnUse"><stop offset="0" stop-color="#464646"/><stop offset="1" stop-color="#797979"/></linearGradient><linearGradient id="Безымянный_градиент_16" x1="1157.69" y1="623.22" x2="1294.08" y2="655.85" gradientTransform="matrix(1, 0, 0, -1, 0, 1026)" gradientUnits="userSpaceOnUse"><stop offset="0" stop-color="#9f9e9e"/><stop offset="1" stop-color="#cfcfce"/></linearGradient><linearGradient id="Безымянный_градиент_17" x1="909.7" y1="384.26" x2="833.16" y2="556.81" gradientTransform="matrix(1, 0, 0, -1, 0, 1026)" gradientUnits="userSpaceOnUse"><stop offset="0" stop-color="#555"/><stop offset="1" stop-color="#bab9b8"/></linearGradient><linearGradient id="Безымянный_градиент_18" x1="675.2" y1="388.39" x2="444.03" y2="306.86" gradientTransform="matrix(1, 0, 0, -1, 0, 1026)" gradientUnits="userSpaceOnUse"><stop offset="0" stop-color="#a2a1a1"/><stop offset="1" stop-color="#e4e4e4"/></linearGradient><linearGradient id="Безымянный_градиент_19" x1="999.89" y1="410.76" x2="985.38" y2="441.62" gradientTransform="matrix(1, 0, 0, -1, 0, 1026)" gradientUnits="userSpaceOnUse"><stop offset="0" stop-color="#6c6c6c"/><stop offset="1" stop-color="#adacac"/></linearGradient><linearGradient id="Безымянный_градиент_20" x1="630.91" y1="375.3" x2="380.4" y2="331.13" gradientTransform="matrix(1, 0, 0, -1, 0, 1026)" gradientUnits="userSpaceOnUse"><stop offset="0" stop-color="#aaa9aa"/><stop offset="1" stop-color="#fffffe"/></linearGradient><linearGradient id="Безымянный_градиент_21" x1="872.34" y1="630.92" x2="914.34" y2="463.48" gradientTransform="matrix(1, 0, 0, -1, 0, 1026)" gradientUnits="userSpaceOnUse"><stop offset="0" stop-color="#313131"/><stop offset="1" stop-color="#515151"/></linearGradient></defs><path class="cls-1" d="M-.31,2H1818.13c1.6,2.48,1.48,4.86,1.53,7.68.76,44.32,0,88.75,0,133.08V497.19c0,8.39,1.45,27.22-.32,34.4a21,21,0,0,1-1,3,9.91,9.91,0,0,1,1.23,3.95c.8,12,1.14,108.17-.42,113.67a11.36,11.36,0,0,1-.6,1.45,13.58,13.58,0,0,1,1.08,5.54c.81,33.93,1.2,360.36-.61,365a11.67,11.67,0,0,1-.9,1.76H-.31V2Z" transform="translate(0.31 -1.98)"/><path class="cls-2" d="M1550.47,84c2.22.46,2.67.35,4.26,2.08-.35,2.43-.83,2.5-2.71,4.15-1.68,0-1.71-.34-2.9-1.43C1549.05,86.35,1549.16,86.07,1550.47,84Z" transform="translate(0.31 -1.98)"/><path class="cls-2" d="M67.94,417.06a10.88,10.88,0,0,1,4.89,1.66c.81,2.46.33,3.39-.33,5.81A10.13,10.13,0,0,1,67.93,423C67,420.66,67.49,419.46,67.94,417.06Z" transform="translate(0.31 -1.98)"/><path class="cls-2" d="M1075.9,935l4.76-1,2.28,1.76c.15,2.26,0,2.21-1.43,4-2.35.32-2.34.28-4.31-1.06A23.43,23.43,0,0,1,1075.9,935Z" transform="translate(0.31 -1.98)"/><path class="cls-2" d="M89.44,62.81l3.29,3.5c0,2.54-1.5,3.29-3.2,5l-3.3-3.22C86.26,65.58,87.8,64.64,89.44,62.81Z" transform="translate(0.31 -1.98)"/><path class="cls-2" d="M317.63,626.18c2.28.18,3.34.32,5.07,1.86.41,2.69,0,3.55-1,6a9.94,9.94,0,0,1-4.6-2C316.37,629.51,316.86,628.62,317.63,626.18Z" transform="translate(0.31 -1.98)"/><path class="cls-2" d="M551.19,934.42l3.89,3.31.12,1.66-3.8,3.88-.69.26a19.08,19.08,0,0,1-3.83-4.85Z" transform="translate(0.31 -1.98)"/><path class="cls-2" d="M1644.76,163.25l3.88-.45c2.07,1.2,2.37,1.22,3.25,3.41-1,2.45-1.25,2.67-3.46,4.15-1.41.16-1.88-.29-3.12-.93C1644.14,167.13,1644.29,165.74,1644.76,163.25Z" transform="translate(0.31 -1.98)"/><path class="cls-2" d="M1013.58,32.3c2.08-1.93,2.9-2.84,5.73-3.54a7.08,7.08,0,0,1,4.15,4.93c.09.31.17.62.26.94a13,13,0,0,1-5.35,2.25C1015.8,35.74,1015.19,34.52,1013.58,32.3Z" transform="translate(0.31 -1.98)"/><path class="cls-2" d="M1671.13,521.33a9.54,9.54,0,0,1,5.45.14c1.82,1.75,2.05,1.77,2.31,4.25-1.35,2.25-1.86,2.4-4.26,3.58-2-.14-2.21-.47-3.72-1.6C1670.07,525.23,1670.39,523.79,1671.13,521.33Z" transform="translate(0.31 -1.98)"/><path class="cls-2" d="M136,808.54a11.45,11.45,0,0,1,2.66.49c2.41.88,3,1.74,4.15,3.85,0,3.06-1.12,4.4-2.93,6.66-.73-.12-1.47-.25-2.19-.43-2.71-.71-3.62-1.83-4.86-4.13C133,812.07,134.24,810.67,136,808.54Z" transform="translate(0.31 -1.98)"/><path class="cls-2" d="M1331.79,848.44c1.58-.29,3.59-.81,5.19-.51a7.73,7.73,0,0,1,4.34,3.25,6.88,6.88,0,0,1,.35.66,5.74,5.74,0,0,1,.26.69,6.24,6.24,0,0,1,.29,1.47c0,.24,0,.49,0,.74a6.14,6.14,0,0,1-.23,1.47c-.07.24-.15.48-.24.71-.92,2.24-2.69,3.31-4.87,4.08a7.13,7.13,0,0,1-5.1-.82c-1.93-1.14-2.46-3-2.75-5.11C1328.68,852.32,1330.23,850.49,1331.79,848.44Z" transform="translate(0.31 -1.98)"/><path class="cls-2" d="M1260.83,78.66c2.35-.38,4.79-.76,7,.4a8.79,8.79,0,0,1,4.29,5.13c.06.23.11.45.15.68a5.4,5.4,0,0,1,.08.69c0,.23,0,.46,0,.69s0,.47,0,.7-.08.45-.13.68a5,5,0,0,1-.2.66,5.18,5.18,0,0,1-.26.65,5.07,5.07,0,0,1-.32.61c-1.39,2.37-3.18,3.22-5.72,4a3.61,3.61,0,0,1-.62.24,8.21,8.21,0,0,1-6-1.52,10.29,10.29,0,0,1-2.08-6.69C1257,82.4,1258.79,80.75,1260.83,78.66Z" transform="translate(0.31 -1.98)"/><path class="cls-2" d="M1483.55,929.33c2-.22,3.93-.39,5.85.48a9.26,9.26,0,0,1,5,5.79,7.56,7.56,0,0,1-.66,5.61c-1.6,2.78-3.85,3.56-6.78,4.18a6.47,6.47,0,0,1-1.31.05,9.56,9.56,0,0,1-6.16-2.89,7,7,0,0,1-1.43-5.35C1478.43,933.32,1480.68,931.51,1483.55,929.33Z" transform="translate(0.31 -1.98)"/><path class="cls-2" d="M400,306.25c.79.06,1.58.13,2.36.24a9.78,9.78,0,0,1,6.87,4.09,7.56,7.56,0,0,1,1.14,6.21c-.78,3.28-3.05,4.92-5.65,6.7-3.54-.14-6.6-.55-9.12-3.36a6.49,6.49,0,0,1-1.64-5.29C394.37,310.71,397,308.65,400,306.25Z" transform="translate(0.31 -1.98)"/><path class="cls-2" d="M1690.15,665.33c2.39-.52,4.9-1.17,7.31-.45a10.06,10.06,0,0,1,6.11,5.56,7.12,7.12,0,0,1-.11,5.58c-1.19,2.72-3.21,3.88-5.89,4.83a2.28,2.28,0,0,1-1,.53,9.51,9.51,0,0,1-6.75-.84,11.72,11.72,0,0,1-2.91-6.75C1686.44,670.1,1688.05,668.1,1690.15,665.33Z" transform="translate(0.31 -1.98)"/><path class="cls-2" d="M126.94,285.29l.6,0c4-.16,7.33.16,10.27,3.18a10.4,10.4,0,0,1,1.12,1.41c.16.26.31.52.45.79a8.5,8.5,0,0,1,.36.82,7.18,7.18,0,0,1,.28.86,8.82,8.82,0,0,1,.2.89,8.65,8.65,0,0,1,.1.89c0,.31,0,.61,0,.91-.14,4.48-2.74,7.19-5.91,9.93a33.64,33.64,0,0,1-4.26.15,10.3,10.3,0,0,1-7.36-3.54,8.54,8.54,0,0,1-2.11-6.4C121,290.35,123.47,288.13,126.94,285.29Z" transform="translate(0.31 -1.98)"/><path class="cls-2" d="M1717.65,46.67a13.44,13.44,0,0,1,8.69,1.15,13,13,0,0,1,6.38,7.7,10.77,10.77,0,0,1-.86,8.41c-1.93,3.4-4.9,5-8.57,5.85a9,9,0,0,1-3.75.35,10.8,10.8,0,0,1-8-4.88A13.92,13.92,0,0,1,1710.13,55C1711.28,50.48,1713.87,48.85,1717.65,46.67Z" transform="translate(0.31 -1.98)"/><path class="cls-2" d="M102.14,591.22c2,0,4.33-.22,6.2.39a13,13,0,0,1,7.54,6.24,12.09,12.09,0,0,1,.55,9.42c-1.67,4.8-4.9,6.72-9.26,8.78a20.34,20.34,0,0,1-2.57-.26c-4.1-.69-7.85-2.47-10.19-6A10.8,10.8,0,0,1,93.13,601C94.43,596,97.89,593.7,102.14,591.22Z" transform="translate(0.31 -1.98)"/><path class="cls-2" d="M1649,900.89l1.37.36c2.06,4.31,4.75,8.82,6,13.43a110.56,110.56,0,0,1,12.73,5.3c-2.68,2.86-8.07,3.22-11.11,6.08-4.32,4-4.62,9.9-8.08,14.41l-.34.42c-1.08-3.91-2.46-8.7-4.72-12.06-4.22-6.28-10.67-7.59-17.59-8.93,4.58-1.12,10.61-2,14.33-5,.2-.13.4-.25.59-.39C1645.91,911.8,1648.33,905.31,1649,900.89Z" transform="translate(0.31 -1.98)"/><path class="cls-2" d="M1704.89,774.23l1.37.36c2.06,4.31,4.75,8.82,6,13.43a110.56,110.56,0,0,1,12.73,5.3c-2.68,2.86-8.07,3.22-11.11,6.08-4.32,4-4.62,9.9-8.08,14.41l-.34.42c-1.08-3.91-2.46-8.7-4.72-12.06-4.22-6.28-10.67-7.58-17.59-8.93,4.58-1.12,10.61-2,14.33-5,.2-.13.4-.25.59-.39C1701.85,785.14,1704.27,778.65,1704.89,774.23Z" transform="translate(0.31 -1.98)"/><path class="cls-1" d="M1222.48,280.1a3.17,3.17,0,0,1-2.89-.65,5.08,5.08,0,0,1,1.45-1.2c5.62-2.75,21.8-8.69,27.52-6.38.22,1.78,0,2.05-.74,3.61A154.13,154.13,0,0,1,1222.48,280.1Z" transform="translate(0.31 -1.98)"/><path class="cls-1" d="M1232.94,254c4.21,2.83,8.55,10.11,11.12,14.54-7.44,4.21-19.46,7.51-27.93,9.17-.79-6.23-8.18-10.48-10.18-16.19l.72-.89C1215,260.28,1224.82,256.32,1232.94,254Z" transform="translate(0.31 -1.98)"/><path class="cls-1" d="M1290.2,452.81c4.73-1.73,26.36-11.58,28.32-15.25,3.29,5.55,3,15.61,3.63,22.08l-.25.67c-8.65,4.55-18.62,10.55-28.13,12.86C1290.64,467.7,1293.56,458.9,1290.2,452.81Z" transform="translate(0.31 -1.98)"/><path class="cls-1" d="M1321.12,464.94c2.83,4.19,3.59,14.79,2.71,19.67a11.28,11.28,0,0,1-.84,2.66c-4.4,4.28-24.43,12.17-30.37,14,1.76-4.69,2.36-16.45.29-21a9.83,9.83,0,0,0-1.05-1.77C1301.63,474.21,1311.8,470.14,1321.12,464.94Z" transform="translate(0.31 -1.98)"/><path class="cls-2" d="M491.24,510a7.18,7.18,0,0,1-4.93-1.21c-.92-1.91-1.1-1.92-.54-4.09,2.42-1.66,3.11-1.38,5.92-1.19Z" transform="translate(0.31 -1.98)"/><path class="cls-2" d="M1211,211.1a14,14,0,0,1,1.44-.11c2.19,0,3.06.86,4.49,2.29-.3,2.46-.91,2.5-2.72,4.06-1.37.21-1.82-.25-3-.87C1210.38,214.13,1210.54,213.57,1211,211.1Z" transform="translate(0.31 -1.98)"/><path class="cls-2" d="M543.32,335.82A27.86,27.86,0,0,0,554,346.65c-4.57,2.72-7.55,5.3-10.24,10-.76-.46-.52-.21-1-.88-1.75-2.43-5.4-4.52-6.36-7.17-1.09-3,5.18-8.6,6.57-11.8Z" transform="translate(0.31 -1.98)"/><path class="cls-1" d="M571.35,764.35q17.56-2.94,35-6.69c2.54,3.44,5.19,6.84,7.52,10.41q-16,5.08-32.17,9.68Z" transform="translate(0.31 -1.98)"/><path class="cls-1" d="M1294.71,506.81c5.2-1.57,26.11-9,29.15-12.23,5.74,13-1.57,86.52-7.47,102.63a7.41,7.41,0,0,1-1.2,2l-1.21,2.85c3.22,7.93-17.36,62.6-21.29,71.87q-2,4.75-4.1,9.47t-4.33,9.37q-2.23,4.66-4.56,9.27t-4.79,9.14q-2.45,4.54-5,9t-5.23,8.89q-2.67,4.43-5.45,8.77t-5.67,8.63q-2.89,4.28-5.88,8.48t-6.09,8.34q-3.09,4.13-6.29,8.18t-6.49,8q-3.29,4-6.69,7.87t-6.87,7.69q-3.49,3.81-7.07,7.53t-7.25,7.35q-3.67,3.63-7.43,7.16t-7.61,7q-3.84,3.45-7.77,6.8t-7.94,6.59q-4,3.26-8.1,6.4t-8.25,6.2q-4.17,3-8.41,6t-8.55,5.78q-4.3,2.83-8.69,5.57t-8.83,5.35q-4.45,2.63-8.95,5.13t-9.08,4.92c-3,1.59-6.11,3.16-9.2,4.68s-6.19,3-9.31,4.46-6.27,2.85-9.42,4.22-6.33,2.7-9.52,4c-102.19,41.29-221,43-322.86-.33q-8.49-3.6-16.81-7.57T707.74,884q-8.13-4.35-16.06-9.07t-15.62-9.78q-7.69-5.07-15.16-10.49t-14.68-11.16q-7.2-5.75-14.15-11.81t-13.6-12.45c-6.19-5.84-12.13-11.86-18-18,4.89-1.42,9.48-2.78,14-5.24-5.13.43-9.85,2.31-14.66,4-6.12-6.67-11.61-14.08-17-21.3,10.83-2.56,21.78-5.84,32.33-9.36,6.08,6.37,12,13.17,18.86,18.76-2.6.9-7.94,2.1-9.53,4.26,3.53.24,7.45-1.69,10.77-2.91,62.19,57.37,131,94,215.57,105.51,3.2.43,6.39.82,9.6,1.17s6.41.66,9.62.93,6.42.5,9.64.7,6.43.34,9.65.45,6.44.19,9.66.22,6.45,0,9.67,0,6.44-.13,9.66-.26,6.44-.29,9.65-.5,6.43-.45,9.64-.73,6.42-.61,9.62-1,6.39-.77,9.59-1.21,6.37-.93,9.55-1.45,6.36-1.08,9.52-1.68,6.32-1.24,9.47-1.92,6.29-1.39,9.43-2.15,6.25-1.55,9.36-2.38,6.22-1.7,9.31-2.61,6.17-1.86,9.24-2.84,6.12-2,9.16-3.07,6.08-2.16,9.09-3.29,6-2.31,9-3.52,5.95-2.45,8.91-3.74,5.89-2.6,8.82-4,5.83-2.75,8.72-4.18,5.76-2.88,8.61-4.38,5.69-3,8.5-4.6,5.61-3.17,8.39-4.81,5.53-3.3,8.26-5,5.45-3.44,8.14-5.21,5.36-3.58,8-5.42,5.27-3.71,7.87-5.61,5.18-3.83,7.73-5.8c51.66-39.32,90.36-89.82,117.8-148.44,6.86-14.66,14.93-32,17.12-48.21l.39-.79c11.87-32.3,19.15-78.07,17.35-112.22Z" transform="translate(0.31 -1.98)"/><path class="cls-1" d="M980.16,259.65c10.61,3.64,22.61,7.49,32.27,13.24a52.24,52.24,0,0,1-7.41,16l-.71.38c.8-3,2.82-6.12,4.2-8.89l-3.46-9.89c-7.92-2.22-16-6.48-23.76-9.34-2.27,4.41-4.61,8.72-7.17,13l-.59-1C975.15,268.61,978,264,980.16,259.65Z" transform="translate(0.31 -1.98)"/><path class="cls-3" d="M426.39,646.05c4.93-3.72,13.16-11.63,18.92-13-1.23,2.83-15.64,12.39-19.05,15.12-26.64,21.68-77.52,62.61-81.32,98.32-.8,7.56,1,15,5.84,21,11.42,13.9,35.78,17.59,52.7,19,24.44,2.11,59.41,1.31,83.66-2.37,10.27-1.82,22.15-3.84,32.55-3.37-10.34,2.21-20.93,3.56-31.4,5q-17.88,2.18-35.88,3.2t-36,.94c-21.6-.33-54.29-1.85-70.18-18.65A25.9,25.9,0,0,1,339,751.64C340.91,712.39,399.06,670.73,426.39,646.05Z" transform="translate(0.31 -1.98)"/><path class="cls-2" d="M1326.62,277.32c20.44-.18,46.52,5,61.47,20a35.56,35.56,0,0,1,10.69,26c-.26,16.76-12.87,39.44-24.84,50.92a8.07,8.07,0,0,1-2.82,1.93c-5-16.3-8.54-34-14.94-49.76-2.66-6.56-7.68-14-14.42-16.84l-.25-1a19.36,19.36,0,0,1-5.33-4.79c-3.5-4.75-14.12-19.54-13.25-25.54Z" transform="translate(0.31 -1.98)"/><path class="cls-3" d="M1293.7,242.52c60.73-10.86,178.13-28.47,232.76,1l.51.78c-10.73-1.9-20.53-7.89-31.36-9.76-52.89-9.1-106.17-4.93-158.95,2.54-13.2,1.88-27.53,3.33-40.4,6.81-13,2.91-26.6,7.49-39.76,9.34,3.1,3,9.16,9.75,9.61,14.1a5.42,5.42,0,0,1,0,.57c12.67-2.73,27.82-4.35,40-8.25,10.08-.77,20.1-2.61,30.17-3.62,36.91-3.74,89.77-7.63,124.16,6.9,3.87,1.64,9.28,3.51,12.48,6.22.28.24.55.49.82.75l-.29.43c-4.72-.71-9.08-4.37-13.63-6a167,167,0,0,0-22.27-6c-25.52-5.37-104.65-4.19-128.63,3.4,2.8,3.86,6.93,12.56,10.6,15-5.65,1.53-38.52,2.56-46.35,2.42-12.77,2.1-25.78,4.15-38.65,5.35a154.13,154.13,0,0,1-25.34,4.62c-3.46,2-18.41,3.92-22.81,4.25a3.11,3.11,0,0,0,.88-2.49c-3.32-5-7.87-10.91-12.91-14.2,2.19-2.08,5.18-3.29,8-4.38,3.12-1.23,7.28-3.15,10.33-1.8l.72-.89-.26-1c8.07-2.87,16.68-4.32,24.83-7.18,0-.14,0-.28,0-.41-.26-2.65-3.16-5.27-5-6.93,9.89-3.27,23.57-9.27,32.41-14.87.41.27.83.53,1.22.83,2.85,2.16,8.5,8.51,9,12C1268.24,248.79,1281.06,245.94,1293.7,242.52Z" transform="translate(0.31 -1.98)"/><path class="cls-1" d="M1209.15,289.12c-1.53.13-1.6.18-2.89-.65a5.08,5.08,0,0,1,1.45-1.2c5.62-2.75,21.8-8.69,27.52-6.38.22,1.78,0,2.05-.74,3.61A154.13,154.13,0,0,1,1209.15,289.12Z" transform="translate(0.31 -1.98)"/><path class="cls-1" d="M1219.61,263c4.21,2.84,8.55,10.11,11.12,14.54-7.44,4.22-19.46,7.51-27.93,9.18-.79-6.24-8.18-10.49-10.18-16.2l.72-.89C1201.7,269.3,1211.49,265.34,1219.61,263Z" transform="translate(0.31 -1.98)"/><path class="cls-4" d="M1267.48,269.52c13.83-1.74,27.61-5.54,41.41-7.81,2.8,3.86,6.93,12.56,10.6,15-5.65,1.53-38.52,2.56-46.35,2.42a9.69,9.69,0,0,0,0-1.32C1273,274.58,1269.74,271.55,1267.48,269.52Z" transform="translate(0.31 -1.98)"/><path class="cls-4" d="M508.79,513.37c5.29-2.92,11.08-5.26,16.57-7.79l.14,18.51L527.16,557c1.66,1.15,2.43-.69,3.52,1.37l-3,2.15a87.17,87.17,0,0,0,2,21l.81.37a3.8,3.8,0,0,1,1.59,1c-2,2.66-1.93,2.82-1.79,6.13-4.39,3-9,5.87-13.22,9.15-4.69,3.28-10,6.52-14.09,10.51-4.31,2.12-8.13,5.52-11.91,8.45-9.9,7.55-20.11,15.16-29.2,23.68A108,108,0,0,1,457,627.35a11.77,11.77,0,0,0-3,.31l-.94.23-.08-1a9.35,9.35,0,0,0,2.66-2.58c-.31-11.93-3.62-14.06-7.76-23.48l2-1.35c.59-8-4.14-25.53-5-35a13.13,13.13,0,0,1-.54-3.4c-.09-5.77-.77-11.6-.94-17.39,9.15-5.91,20.47-8.6,29.46-14.88,1.95-1.17,3.09-1.77,3.93-3.93l.93,1.57C483.91,526.76,502.4,516.36,508.79,513.37Z" transform="translate(0.31 -1.98)"/><path class="cls-1" d="M478.51,549.45l.36-2.19c3.19-3.85,24.81-14.29,30.29-15.15.06,6.4,3.05,30.57.89,34.55L508,568.21l.71,1.18,2.55-.42c2.32,6,3.08,13.64,3.42,20a12,12,0,0,1-3.77,3.16l.05.93c1.44-.23,2.82-.5,4.24-.84a22.42,22.42,0,0,1,1.89,5.93c-4.69,3.28-10,6.52-14.09,10.51-4.31,2.12-8.13,5.52-11.91,8.45,0-3.64-1.12-7.09-1.16-10.75l2.72-2.29c-1.25-1.44-2.32-.21-4.3-.57-2.49-6.39-4.88-13.93-5.14-20.81l2.15-1.25v-.94l-2.59-.36C480.53,577.53,479,554.31,478.51,549.45Z" transform="translate(0.31 -1.98)"/><path class="cls-3" d="M508.79,513.37c5.29-2.92,11.08-5.26,16.57-7.79l.14,18.51L527.16,557c1.66,1.15,2.43-.69,3.52,1.37l-3,2.15a87.17,87.17,0,0,0,2,21l.81.37a3.8,3.8,0,0,1,1.59,1c-2,2.66-1.93,2.82-1.79,6.13-4.39,3-9,5.87-13.22,9.15a22.42,22.42,0,0,0-1.89-5.93c-1.42.34-2.8.61-4.24.84l-.05-.93a12,12,0,0,0,3.77-3.16c-.34-6.39-1.1-14-3.42-20l-2.55.42-.71-1.18,2.08-1.55c2.16-4-.83-28.15-.89-34.55l.24-.71-.15-6-1.34-1.35c-9.26,3.41-21.17,9-29.18,14.69a35.73,35.73,0,0,0-.8,8.63l-1.56-1.14c-5.31,2.84-26.48,16.39-31,15.9l-1-1.13c-.09-5.77-.77-11.6-.94-17.39,9.15-5.91,20.47-8.6,29.46-14.88,1.95-1.17,3.09-1.77,3.93-3.93l.93,1.57C483.91,526.76,502.4,516.36,508.79,513.37Z" transform="translate(0.31 -1.98)"/><path class="cls-3" d="M1369,398.32l.62-.24c17.16-7.17,52.7-47.58,59.82-65.95,3.28-8.47,4.75-18.43.94-27-4-9-13.92-14.73-22.81-18-11.14-4.11-24.71-6.51-36.47-8-4.87-.61-10,.73-14.65-1.08,8.09-3.45,43.53,3.86,51.7,7.21,10.21,4.19,19.36,9.34,23.79,19.95,4,9.73,2.82,19.86-1.17,29.4-8.15,19.46-42.83,57.09-60.89,68.07,4.52,8,2.58,18.57,6.31,26.76l.6-.21c7.59-2.9,38.5-26.08,45.73-32.19,4.57-3.86,36-33.87,37.58-34.31-1.34,8.05-50.1,46.19-58.67,52.31s-17.12,12.37-26,18c3.95,9.22,2.16,21.67,5.41,29.42l.7-.23c10.93-3.57,22.28-11.67,32-17.83,28.77-18.12,56.69-37.69,81.89-60.59,10.08-9.16,19.12-19.25,28.93-28.65l-.06-1.21,1,.28,1.26-1.31c.11,2.67-6.33,8.84-8.3,11-39.61,42.72-89.28,72.42-138.21,103-6.85,5.68-25.82,16.48-34,19.61,4,12.94,3.06,88.32-2.61,100.34a7.93,7.93,0,0,1-.84,4.59l-.55-1.13c-8.91,3.39-32.61,20.22-40.19,18a7.41,7.41,0,0,0,1.2-2c5.9-16.11,13.21-89.63,7.47-102.63-3,3.23-24,10.66-29.15,12.23l-.21.67c-3.25,1.43-11.6,6-15,4.47-1-.47-1.49-2.46-1.93-3.52,2.29-4.58,1.74-19.46.26-24.47q-10.72,4.39-21.59,8.38l-2-1.29,0,0,.14,1.78-1.55-.23.68.33,0-1.28-.69,1.08c2.85-4.11,19.49-6.89,24.44-11.58l.33-.33c.67-5.42-.49-16.31-2.84-21.29-4.42,3.43-11,7.87-16.46,9l-1.75.25c-1-5.41,8.45-15.61,7.38-23.46a27.76,27.76,0,0,0,6.3-3.63c2.06-1.7,2.88-2.32,3.18-5,5.42-2.69,10.63-7.77,15.36-11.63,23.65-19.31,45.25-40.55,62-66.3,2.45-3.78,7.79-12,6.83-16.44a6.71,6.71,0,0,0,.84-.85c4.36-5.24,5.71-15.08,4.93-21.67a27.28,27.28,0,0,0-10.82-19l2.51-.33c6.74,2.82,11.76,10.28,14.42,16.84,6.4,15.75,9.94,33.46,14.94,49.76-.49,3.52-3.44,6.05-6.13,8.1C1367.71,388.37,1368.68,393.45,1369,398.32Z" transform="translate(0.31 -1.98)"/><path class="cls-4" d="M1276.87,461.83c3.36,6.1.44,14.89,3.57,20.36-4.67,3.53-10.6,4.61-15.51,7.63h-.6c.67-5.42-.49-16.31-2.84-21.29l2.88-1.77C1269.05,466.49,1273.06,464.46,1276.87,461.83Z" transform="translate(0.31 -1.98)"/><path class="cls-4" d="M1365,384.24c2.72,4.13,3.69,9.21,4,14.08-4.1,5.56-26.26,21.54-32.63,24.07-1.33-2-2.06-4.92-2.92-7.19C1340.68,411.17,1361.49,391.8,1365,384.24Z" transform="translate(0.31 -1.98)"/><path class="cls-1" d="M1276.87,461.83c4.73-1.73,26.36-11.58,28.32-15.24,3.29,5.54,3,15.61,3.63,22.08l-.25.66c-8.65,4.55-18.62,10.55-28.13,12.86C1277.31,476.72,1280.23,467.93,1276.87,461.83Z" transform="translate(0.31 -1.98)"/><path class="cls-1" d="M1307.79,474c2.83,4.19,3.59,14.8,2.71,19.67a11.5,11.5,0,0,1-.84,2.67c-4.4,4.27-24.43,12.16-30.37,13.95,1.76-4.69,2.36-16.45.29-20.95a10.19,10.19,0,0,0-1-1.77C1288.3,483.23,1298.47,479.16,1307.79,474Z" transform="translate(0.31 -1.98)"/><path class="cls-4" d="M1336.32,427.65c6.32-2.63,29.57-19.6,33.55-24.93,4.52,8,2.58,18.57,6.31,26.76-3.59,4.59-27.76,18.76-33.69,20.57C1339.4,447.09,1337.83,432.45,1336.32,427.65Z" transform="translate(0.31 -1.98)"/><path class="cls-4" d="M1375.39,433c3.95,9.22,2.16,21.67,5.41,29.42-4.17,4.23-29.71,16.62-35.52,17.57,1.09-5.88-1-18.57-3.79-23.9C1348.45,451.79,1372.08,439.24,1375.39,433Z" transform="translate(0.31 -1.98)"/><path class="cls-5" d="M1341.76,309.54c6.74,2.82,11.76,10.28,14.42,16.84,6.4,15.75,9.94,33.46,14.94,49.76-.49,3.52-3.44,6.05-6.13,8.1-3.5,7.56-24.31,26.93-31.55,31-8.65,11.31-55.11,43.14-69.07,51.56l-2.88,1.77c-4.42,3.43-11,7.87-16.46,9l-1.75.25c-1-5.41,8.45-15.61,7.38-23.46a27.76,27.76,0,0,0,6.3-3.63c2.06-1.7,2.88-2.32,3.18-5,5.42-2.69,10.63-7.77,15.36-11.63,23.65-19.31,45.25-40.55,62-66.3,2.45-3.78,7.79-12,6.83-16.44a6.71,6.71,0,0,0,.84-.85c4.36-5.24,5.71-15.08,4.93-21.67a27.28,27.28,0,0,0-10.82-19Z" transform="translate(0.31 -1.98)"/><path class="cls-4" d="M442.6,532.09c-.1-3.69-.14-7.38-.14-11.06s0-7.38.13-11.07.23-7.37.41-11,.41-7.37.68-11.05.59-7.35.95-11,.78-7.34,1.23-11,.95-7.31,1.5-11,1.13-7.29,1.77-10.92,1.31-7.26,2-10.88,1.49-7.22,2.3-10.82,1.67-7.18,2.58-10.76,1.84-7.14,2.84-10.69,2-7.09,3.1-10.62,2.2-7,3.36-10.54,2.38-7,3.63-10.45,2.54-6.93,3.88-10.36,2.7-6.91,4.12-10.34,2.87-6.84,4.37-10.24,3-6.77,4.62-10.12,3.2-6.7,4.86-10,3.37-6.62,5.11-9.89,3.52-6.53,5.34-9.76,3.68-6.45,5.58-9.63,3.84-6.35,5.81-9.49,4-6.26,6-9.35,4.14-6.16,6.27-9.2,4.29-6.05,6.49-9,4.43-6,6.7-8.88,4.58-5.84,6.92-8.72,4.72-5.72,7.13-8.54,4.86-5.61,7.33-8.37,5-5.49,7.54-8.19,5.12-5.37,7.73-8,5.25-5.24,7.93-7.81,5.37-5.11,8.11-7.62,5.5-5,8.29-7.42,5.62-4.84,8.47-7.21,5.74-4.71,8.65-7,5.85-4.56,8.81-6.79,6-4.42,9-6.58,6.06-4.28,9.13-6.36,6.16-4.13,9.28-6.13,6.27-4,9.43-5.91,6.36-3.82,9.58-5.68,6.44-3.66,9.7-5.44,6.54-3.51,9.84-5.2,6.62-3.35,10-5,6.69-3.19,10.07-4.72,6.77-3,10.18-4.44,6.83-2.84,10.28-4.19,6.9-2.66,10.38-3.93,7-2.48,10.48-3.66,7-2.32,10.56-3.41,7.09-2.14,10.65-3.14,7.13-2,10.72-2.87,7.18-1.79,10.79-2.61,7.22-1.61,10.85-2.34,7.26-1.42,10.91-2.07,7.29-1.24,10.95-1.79,7.32-1.06,11-1.52,7.35-.88,11-1.25,7.37-.69,11.06-1,7.38-.51,11.08-.7,7.39-.33,11.09-.42,7.4-.14,11.1-.14,7.4,0,11.1.13,7.4.22,11.09.41,7.39.41,11.08.68,7.38.59,11.06,1,7.36.78,11,1.24,7.34,1,11,1.51,7.31,1.14,11,1.78,7.28,1.32,10.91,2,7.25,1.51,10.86,2.33,7.2,1.68,10.79,2.59,7.16,1.87,10.72,2.87,7.11,2,10.65,3.13,7.06,2.22,10.57,3.39,7,2.4,10.48,3.66,6.94,2.56,10.39,3.91c54.28,20.64,99.45,52.44,142.32,91.05,6,5.39,18,14.24,21.19,21.35,4.65,3.87,24.79,24.63,25.29,29.42,6.44-2.1,31.63-10.07,35.68-13.84,3.55,2.21,11.42,12,12.34,16.05a5.66,5.66,0,0,1,0,1.08c-12.64,3.42-25.46,6.27-38.17,9.46-.51-3.45-6.16-9.8-9-12-.39-.3-.81-.56-1.22-.83-8.84,5.6-22.52,11.6-32.41,14.87,1.87,1.66,4.77,4.28,5,6.93,0,.13,0,.27,0,.41-8.15,2.86-16.76,4.31-24.83,7.18l.26,1-.72.89c-3-1.35-7.21.57-10.33,1.8-2.8,1.09-5.79,2.3-8,4.38-4.21-8.1-14.06-15.8-20.66-22-40.84-38.4-90.19-70.2-143.85-87.21q-3.75-1.2-7.52-2.33c-2.52-.76-5-1.48-7.57-2.18s-5.08-1.37-7.62-2-5.1-1.26-7.65-1.85-5.13-1.16-7.7-1.7-5.14-1-7.72-1.53-5.17-.94-7.76-1.36-5.19-.83-7.78-1.2-5.21-.72-7.81-1-5.22-.61-7.83-.87-5.23-.5-7.84-.71-5.24-.39-7.86-.54-5.25-.27-7.87-.37-5.25-.17-7.87-.21-5.26-.05-7.88,0-5.25.06-7.88.13-5.24.17-7.87.3-5.24.27-7.86.46-5.24.39-7.85.62-5.23.5-7.84.8-5.21.61-7.82,1-5.2.73-7.79,1.13-5.19.83-7.77,1.29-5.17.94-7.74,1.45-5.15,1.05-7.71,1.61-5.12,1.16-7.68,1.78-5.09,1.27-7.63,1.94-5.07,1.38-7.59,2.11-5,1.48-7.55,2.26-5,1.59-7.49,2.42-5,1.69-7.44,2.58-4.94,1.8-7.39,2.73c-13.1,5-26.12,10-38.55,16.54-89.34,46.71-152.48,123.28-182.39,219.45-9.74,31.32-14.79,62.77-16.32,95.52-5.49,2.53-11.28,4.87-16.57,7.79-6.39,3-24.88,13.39-31.06,13l-.93-1.57c-.84,2.16-2,2.76-3.93,3.93-9,6.28-20.31,9-29.46,14.88A69.61,69.61,0,0,0,442.6,532.09Z" transform="translate(0.31 -1.98)"/><path class="cls-2" d="M477.9,519a7.15,7.15,0,0,1-4.92-1.21c-.92-1.91-1.11-1.92-.54-4.09,2.42-1.66,3.11-1.38,5.92-1.19Z" transform="translate(0.31 -1.98)"/><path class="cls-2" d="M1197.7,220.12c.48,0,1-.11,1.44-.11,2.19,0,3.06.86,4.49,2.3-.3,2.45-.91,2.49-2.72,4.05-1.37.21-1.82-.25-3-.87C1197.05,223.15,1197.21,222.59,1197.7,220.12Z" transform="translate(0.31 -1.98)"/><path class="cls-1" d="M478.36,512.5c-1.5-60.13,21-136.72,48.59-189.56,49.49-94.91,141-170.11,242.78-201.83C870.47,89.72,986.86,96.5,1080.86,146c44.33,23.35,87.34,54.45,119.59,93,3.7,4.42,10.22,10.69,11.86,16-4.47,4.12-18.18,10.83-24.41,11-3-7.32-13.35-15-19.19-20.24-37.49-33.78-78.09-62.24-124.83-81.76q-4.35-1.82-8.75-3.52t-8.83-3.3q-4.44-1.61-8.91-3.09c-3-1-6-2-9-2.88s-6-1.8-9-2.65-6.07-1.66-9.11-2.43-6.1-1.51-9.17-2.21-6.14-1.36-9.22-2-6.16-1.21-9.26-1.76-6.2-1.06-9.3-1.53-6.22-.91-9.34-1.31-6.24-.75-9.37-1.07-6.26-.61-9.39-.85-6.27-.45-9.41-.62-6.28-.3-9.42-.39-6.28-.15-9.43-.16-6.28,0-9.43.07-6.28.16-9.42.3-6.28.31-9.41.53-6.27.47-9.4.76-6.26.62-9.38,1-6.24.77-9.35,1.21-6.22.93-9.32,1.44-6.19,1.08-9.28,1.67-6.16,1.23-9.23,1.9-6.14,1.38-9.19,2.12-6.1,1.53-9.13,2.34-6.06,1.68-9.08,2.57-6,1.82-9,2.79-6,2-8.93,3-5.93,2.11-8.87,3.22-5.86,2.26-8.78,3.44c-77.55,31.92-141.82,85-184.9,157.24-8.41,14.1-16.25,28.17-22.56,43.36-19.41,46.74-33.16,99.3-33.48,150.14-6.39,3-24.88,13.39-31.06,13l-.93-1.57,1.1-5.83Z" transform="translate(0.31 -1.98)"/><path class="cls-2" d="M530,344.85a28,28,0,0,0,10.64,10.82c-4.57,2.72-7.56,5.3-10.24,9.95-.77-.46-.52-.2-1-.88-1.75-2.43-5.4-4.52-6.37-7.17-1.08-3,5.19-8.6,6.58-11.8Z" transform="translate(0.31 -1.98)"/><path class="cls-4" d="M1281.38,515.83c5.2-1.57,26.11-9,29.15-12.23,5.74,13-1.57,86.52-7.47,102.63a7.41,7.41,0,0,1-1.2,2c7.58,2.19,31.28-14.64,40.19-18l.55,1.13c5.07,12.64-23.25,92.79-30.54,109.85C1268.09,804.07,1177.24,897,1073,938.61c-2.36.94-4.71,1.29-6.14,3.44l.49.94-4.76,1c-2.44-1.24-28.3,9.33-34,11.15q-7.29,2.29-14.66,4.34t-14.79,3.85q-7.44,1.82-14.92,3.36t-15,2.87q-7.53,1.3-15.1,2.37t-15.17,1.87q-7.6.79-15.23,1.36t-15.26.86c-105.85,3.6-208.11-26.65-291.8-92.34-15.73-12.34-29.61-26.45-44.17-40.08l-.09-.61q-9.79-10.85-19-22.21c-12.38,2.94-24.57,6.81-37,9.32-13.41,4.09-27.74,6.52-41.46,9.43-69.68,14.79-169.66,29.29-237.35,3.8-18.37-6.91-36.66-17.94-44.85-36.71-3.36-7.7-5.52-21.71-2.38-29.61l.74,0c1.79,7.11-.72,15.2,1.31,22.89,4.06,15.32,16.52,26.53,29.84,34.13,69.8,39.82,219.19,14.72,293.06-5.61,11.67-1,25.06-6,36.44-9.07-5.24-6.06-9.16-15.34-15.39-20.2a6.51,6.51,0,0,0-4.8-1.64c-3.58.31-7.74,2.25-11.26,3.19a132.33,132.33,0,0,1-19.85,3.56,61,61,0,0,1-9.74,2.2c-49,9.06-98,14.81-147.64,8.42-17.67-2.27-35.84-5.44-50.76-15.92-8-5.64-14.36-13.45-16-23.33-1.78-10.61,1.94-24.54,8.15-33.29l1,.39c-3.32,12.48-9.24,17.91-6.79,32.93,1.54,9.42,8.17,16,15.71,21.4,15.26,10.85,34.79,14.44,53,16.54,51.28,5.92,100-1.46,150.46-10.16,8.66-3.39,29.26-2.73,35.45-8.36-.21-4.14-6.11-10.65-9.21-13.42-1.11-1-3-1-4.38-1-10.4-.47-22.28,1.55-32.55,3.37l-2.08-3.68q18.36-.18,36.63-2T558,773.37q17.58-2.94,35-6.69l17.35-3.42c1.82,2.57,3.61,6,6.73,7,2.07-.33,4.8-1.55,6.5-.41l-4.38,2.53c0,4,10.87,13.17,14.13,16.35A36.06,36.06,0,0,0,637,792c1.24,1.26,2.57,2.44,3.88,3.63q3.35,3.06,6.77,6t6.91,5.88c2.32,1.93,4.68,3.83,7.05,5.71s4.77,3.71,7.19,5.53,4.86,3.6,7.32,5.35,4.95,3.48,7.46,5.17,5,3.36,7.58,5,5.11,3.23,7.69,4.8,5.19,3.1,7.82,4.61,5.26,3,7.92,4.41,5.34,2.85,8,4.22,5.4,2.72,8.13,4,5.47,2.59,8.23,3.83,5.53,2.44,8.32,3.61,5.58,2.31,8.4,3.42,5.64,2.17,8.49,3.2,5.69,2,8.56,3,5.74,1.89,8.63,2.79,5.79,1.75,8.7,2.57,5.83,1.61,8.76,2.36,5.86,1.46,8.81,2.14,5.9,1.32,8.86,1.93,5.94,1.17,8.91,1.71,6,1,9,1.49,6,.88,9,1.26,6,.74,9,1,6,.59,9,.83,6,.44,9,.61,6,.29,9.07.38,6,.14,9.07.16,6,0,9.07-.06,6-.15,9.06-.29,6.31-.34,9.45-.58,6.3-.5,9.44-.81,6.28-.66,9.41-1,6.26-.81,9.38-1.28,6.24-1,9.35-1.51,6.21-1.13,9.31-1.75,6.18-1.28,9.26-2,6.15-1.44,9.21-2.21,6.11-1.58,9.15-2.43,6.07-1.74,9.09-2.66,6-1.89,9-2.89,6-2,8.94-3.11,5.93-2.18,8.87-3.33,5.86-2.33,8.78-3.55,5.81-2.47,8.69-3.76,5.74-2.62,8.59-4,5.67-2.76,8.49-4.19,5.6-2.9,8.38-4.4,5.54-3,8.28-4.61,5.45-3.18,8.15-4.82,5.37-3.31,8-5,5.29-3.44,7.91-5.21,5.2-3.58,7.77-5.41,5.12-3.7,7.64-5.6,5-3.83,7.5-5.79,4.92-3.95,7.35-6,4.81-4.07,7.19-6.16,4.73-4.19,7.05-6.32,4.61-4.31,6.88-6.51,4.51-4.42,6.72-6.67,4.4-4.53,6.56-6.84,4.28-4.64,6.38-7c28.52-31.63,51-70.61,66.59-110.13,2.21-5.61,6.41-13.94,6.1-19.87,4.28-4.94,6.33-18.13,7.9-24.58,3.7-15.16,16.52-77.89,10.21-88.26-4.55,3-13,4.85-18.29,6.31-2,.56-5.29,1.67-7.15.61,1.83-2.77,21-8.36,25.53-11.26l.46-.3c.44,1.06.88,3,1.93,3.52,3.37,1.51,11.72-3,15-4.47Z" transform="translate(0.31 -1.98)"/><path class="cls-1" d="M558,773.37q17.58-2.94,35-6.69c2.53,3.44,5.19,6.84,7.52,10.41q-16,5.08-32.17,9.68Z" transform="translate(0.31 -1.98)"/><path class="cls-1" d="M1281.38,515.83c5.2-1.57,26.11-9,29.15-12.23,5.74,13-1.57,86.52-7.47,102.63a7.41,7.41,0,0,1-1.2,2l-1.21,2.86c3.22,7.92-17.36,62.59-21.29,71.86-1.33,3.18-2.7,6.33-4.1,9.48s-2.85,6.26-4.33,9.37-3,6.19-4.56,9.26-3.16,6.11-4.79,9.14-3.31,6-5,9-3.45,6-5.23,8.89-3.6,5.87-5.45,8.77-3.75,5.78-5.67,8.63-3.89,5.68-5.88,8.48-4,5.59-6.09,8.34-4.16,5.48-6.29,8.19-4.29,5.38-6.49,8-4.43,5.27-6.69,7.87-4.55,5.16-6.87,7.7-4.69,5-7.07,7.52-4.81,4.93-7.25,7.35-4.93,4.81-7.43,7.16-5.05,4.69-7.61,7-5.15,4.56-7.77,6.79-5.27,4.43-7.94,6.59-5.38,4.3-8.1,6.4-5.48,4.17-8.25,6.2-5.59,4-8.41,6-5.68,3.89-8.55,5.78-5.77,3.75-8.69,5.57-5.87,3.61-8.83,5.35-6,3.46-9,5.14-6,3.31-9.08,4.91-6.12,3.16-9.2,4.68-6.19,3-9.31,4.46-6.27,2.85-9.42,4.22-6.34,2.7-9.52,4c-102.19,41.3-221,43-322.86-.33q-8.49-3.58-16.81-7.57T694.4,893q-8.13-4.35-16-9.07t-15.62-9.78q-7.71-5.07-15.17-10.49t-14.67-11.16q-7.21-5.74-14.15-11.81t-13.61-12.45c-6.18-5.84-12.12-11.86-18-18,4.9-1.42,9.49-2.78,14-5.24-5.13.43-9.85,2.31-14.67,4-6.11-6.67-11.6-14.08-17-21.3,10.83-2.56,21.78-5.84,32.32-9.36,6.09,6.37,12,13.18,18.87,18.76-2.61.9-7.94,2.1-9.54,4.26,3.54.25,7.46-1.69,10.77-2.91,62.2,57.37,131,94,215.58,105.51q4.79.64,9.59,1.17c3.21.35,6.41.66,9.62.93s6.43.51,9.64.7,6.44.34,9.66.45,6.44.19,9.66.22,6.44,0,9.67,0,6.44-.13,9.66-.26,6.43-.29,9.65-.49,6.43-.45,9.64-.74,6.41-.61,9.61-1,6.4-.77,9.59-1.21,6.38-.93,9.56-1.45,6.35-1.08,9.52-1.68,6.32-1.24,9.47-1.92,6.29-1.39,9.42-2.15,6.26-1.54,9.37-2.38,6.21-1.7,9.31-2.61,6.17-1.85,9.24-2.84,6.12-2,9.16-3.07,6.07-2.16,9.09-3.29,6-2.31,9-3.52,6-2.45,8.91-3.73,5.89-2.61,8.82-4,5.82-2.75,8.72-4.17,5.75-2.89,8.61-4.39,5.68-3,8.5-4.6,5.61-3.17,8.39-4.81,5.52-3.3,8.26-5,5.44-3.44,8.14-5.21,5.36-3.58,8-5.42,5.27-3.7,7.87-5.61,5.17-3.83,7.73-5.8c51.66-39.32,90.36-89.82,117.8-148.44,6.86-14.66,14.93-32,17.12-48.21l.39-.79c11.87-32.3,19.15-78.07,17.35-112.22Z" transform="translate(0.31 -1.98)"/><path class="cls-1" d="M1245,477.56c5.5-1.16,12-5.6,16.46-9,2.35,5,3.51,15.87,2.84,21.29l-.33.33c-5,4.69-21.59,7.47-24.44,11.58l.69-1.08,0,1.28-.68-.33,1.55.23-.14-1.78,0,0,2,1.29q10.86-4,21.59-8.38c1.48,5,2,19.89-.26,24.47l-.46.3c-4.54,2.9-23.7,8.49-25.53,11.26,1.86,1.06,5.1,0,7.15-.61,5.32-1.46,13.74-3.28,18.29-6.31,6.31,10.37-6.51,73.1-10.21,88.26-1.57,6.45-3.62,19.64-7.9,24.58.31,5.93-3.89,14.26-6.1,19.87-15.57,39.52-38.07,78.5-66.59,110.13-2.1,2.35-4.23,4.69-6.38,7s-4.35,4.59-6.56,6.84-4.45,4.48-6.72,6.67-4.56,4.37-6.88,6.5-4.67,4.25-7.05,6.33-4.77,4.14-7.19,6.16-4.88,4-7.35,6-5,3.89-7.5,5.79-5.07,3.76-7.64,5.6-5.16,3.63-7.77,5.41-5.25,3.5-7.91,5.21-5.33,3.37-8,5-5.42,3.25-8.15,4.82-5.5,3.11-8.28,4.61-5.57,3-8.38,4.4-5.65,2.83-8.49,4.19-5.71,2.69-8.59,4-5.78,2.54-8.69,3.76-5.84,2.4-8.78,3.55-5.9,2.26-8.87,3.33-6,2.11-8.94,3.11-6,2-9,2.89-6,1.81-9.09,2.66-6.09,1.66-9.15,2.43-6.13,1.51-9.21,2.21-6.17,1.35-9.26,2-6.2,1.21-9.31,1.75-6.23,1-9.35,1.51-6.25.9-9.38,1.28-6.27.74-9.41,1-6.29.58-9.43.81-6.3.43-9.46.58-6,.23-9.06.29-6,.08-9.07.06-6.05-.07-9.07-.16-6-.22-9.07-.38-6-.37-9-.61-6-.51-9-.83-6-.66-9-1-6-.8-9-1.26-6-1-9-1.49-5.94-1.11-8.91-1.71-5.91-1.25-8.86-1.93-5.88-1.39-8.81-2.14-5.85-1.54-8.76-2.36-5.81-1.68-8.7-2.57-5.77-1.83-8.63-2.79-5.72-2-8.56-3-5.68-2.1-8.49-3.2-5.62-2.24-8.4-3.42-5.57-2.37-8.32-3.61-5.5-2.52-8.23-3.83-5.44-2.64-8.13-4-5.37-2.78-8-4.22-5.3-2.91-7.92-4.41-5.23-3-7.82-4.61-5.15-3.17-7.69-4.8-5.08-3.3-7.58-5-5-3.42-7.46-5.17-4.9-3.54-7.32-5.35-4.82-3.66-7.19-5.53-4.73-3.78-7.05-5.71-4.63-3.89-6.91-5.88-4.54-4-6.77-6c-1.31-1.19-2.64-2.37-3.88-3.63a36.06,36.06,0,0,1-3.65-3.22c-3.26-3.18-14.08-12.37-14.13-16.35l4.38-2.53c-1.7-1.14-4.43.08-6.5.41-3.12-1-4.91-4.44-6.73-7,6.63-1.43,13.4-2.67,19.85-4.8-1.13-2.28-7,1.47-9.69.08-4.3-2.19-5.81-8.75-12.69-12,7.57-1.85,15.79-2.69,23.1-5.29l-.12-1c8.8-3.8,23.66-5.94,33.38-8.42,15-3.82,29.76-8.63,44.79-12.35,7.21,1.58,15-6.72,21.06-3.49,3.18,1.7,4.77,5.84,7.4,7.4,1.73,1,10.43-4.75,13.48-4.22l.09,1,4-.83c114-41.54,222.32-87.46,328.67-146.19,21.64-12,48.43-24.57,68.08-38.85,6.32-2.8,14.77-7.2,20.1-11.55,6.11-2.39,29.39-16.24,33.1-21.38,7.13-2,24.81-12.65,30.79-17.76C1238.71,482.32,1243.37,480.36,1245,477.56Z" transform="translate(0.31 -1.98)"/><path class="cls-6" d="M709,719.51c7.21,1.58,15-6.72,21.06-3.49,3.18,1.7,4.77,5.84,7.4,7.4,1.73,1,10.43-4.75,13.48-4.22l.09,1q-14.71,5.44-29.55,10.51l-8.37,2.95c-22.53,7.67-45.45,13.63-68,21l-14.86,3.79c-1.13-2.28-7,1.47-9.69.08-4.3-2.19-5.81-8.75-12.69-12,7.57-1.85,15.79-2.69,23.1-5.29l-.12-1c8.8-3.8,23.66-5.94,33.38-8.42C679.2,728,694,723.23,709,719.51Z" transform="translate(0.31 -1.98)"/><path class="cls-1" d="M525.36,505.58c1.53-32.75,6.58-64.2,16.32-95.52,29.91-96.17,93.05-172.74,182.39-219.45,12.43-6.5,25.45-11.59,38.55-16.54,2.45-.93,4.91-1.85,7.39-2.73s5-1.75,7.44-2.58,5-1.64,7.49-2.42,5-1.54,7.55-2.26,5-1.43,7.59-2.11,5.08-1.32,7.63-1.94,5.11-1.21,7.68-1.78,5.13-1.1,7.71-1.61,5.15-1,7.74-1.45,5.17-.89,7.77-1.29,5.19-.78,7.79-1.13,5.21-.66,7.82-1,5.22-.56,7.84-.8,5.23-.44,7.85-.62,5.24-.34,7.86-.46,5.25-.23,7.87-.3,5.25-.11,7.88-.13,5.25,0,7.88,0,5.25.11,7.87.21,5.25.22,7.87.37,5.24.33,7.86.54,5.23.44,7.84.71,5.22.55,7.83.87,5.21.66,7.81,1,5.19.77,7.78,1.2,5.18.88,7.76,1.36,5.15,1,7.72,1.53,5.14,1.1,7.7,1.7,5.1,1.21,7.65,1.85,5.08,1.32,7.62,2,5,1.42,7.57,2.18,5,1.53,7.52,2.33c53.66,17,103,48.81,143.85,87.21,6.6,6.21,16.45,13.91,20.66,22,5,3.29,9.59,9.24,12.91,14.2a3.11,3.11,0,0,1-.88,2.49c-10.23,3.08-22.54,6.08-33.12,7.27a49.33,49.33,0,0,1-9.57,2.79c-17.67,5.8-36,9.66-53.54,15.86-10.22-7.73-20.72-20.22-32.65-25-.47,3.19-2.22,4.84-4.53,7-1.61,4.29-4.16,12.07-7.37,15.15,1.21,8.82-5.15,36.41-10.72,43.65a11.53,11.53,0,0,1-5.15,3.65c-1.93,2.9-6.69,4-9.94,4.66-24.66,4.7-38.71-4.08-56,20.84-12.9,18.53-18.34,45.67-44.14,50.22-20.2,3.56-41.27-4.17-61.27,2.38-26.9,8.8-38.85,42.55-66.52,48-26,5.1-49.26-17.76-74.69-9.77-23.51,7.39-29.77,29.21-58.2,33.88a40.29,40.29,0,0,1-8-.5c-13.77-1.94-22.22-10.39-30.25-20.93a26.49,26.49,0,0,0-2.63-4.3c-2-3.76-3.9-7.16-4.5-11.45-1.7,14.66-3.23,29.46-2.89,44.23.17,7.65,1.57,15.59,1.49,23.14-16.8,4.65-37.29,17.15-52.23,26.4-9.55,6.62-19.63,12.51-29.61,18.46-.14-3.31-.17-3.47,1.79-6.13a3.8,3.8,0,0,0-1.59-1l-.81-.37a87.17,87.17,0,0,1-2-21l3-2.15c-1.09-2.06-1.86-.22-3.52-1.37l-1.66-32.88Z" transform="translate(0.31 -1.98)"/><path class="cls-7" d="M633.93,406.92c2.41,1.66,2.9,2.62,3.42,5.51a42.76,42.76,0,0,1,.42,4.93l1.54-1.7,1.23,0c1.9,13.35,7.34,22.78,15.74,33,1.54,1.87,4.29,4.16,5.21,6.35-2.38,19.69-2.57,39.19-2.61,59a40.29,40.29,0,0,1-8-.5c-13.77-1.94-22.22-10.39-30.25-20.93a26.49,26.49,0,0,0-2.63-4.3c-2-3.76-3.9-7.16-4.5-11.45C618,452.53,624.33,429.64,633.93,406.92Z" transform="translate(0.31 -1.98)"/><path class="cls-2" d="M687.62,325.12q4.39-4.62,9-9.05t9.37-8.63q4.78-4.2,9.75-8.2t10.11-7.75c3.42-2.52,6.91-4.95,10.44-7.3s7.12-4.63,10.76-6.82,7.32-4.31,11.06-6.33,7.5-4,11.32-5.84c60.83-29.66,140.08-35,204.37-12.87-1.69,5.75-4.34,11-6.95,16.34-2.2,4.38-5,9-6.63,13.56l-2.48,1.93c-5.7,13.59-16.14,23.59-29.11,30.23-5.56.75-11,3.17-16.43,4.56-8.39,2.15-16.31,3.88-24.1,7.87-23.16,11.86-36.72,37.75-62.59,50-22.71,10.78-44.24,2.74-67.46,7.36-31.93,6.35-49.52,37.12-85.54,28.16-3.66,5.56-5.15,15.17-6.81,21.72-9-4.43-16.69-11.19-23.32-18.75a2.17,2.17,0,0,0-1.82.35l-1.23,0-1.54,1.7a42.76,42.76,0,0,0-.42-4.93c-.52-2.89-1-3.85-3.42-5.51,2.92-8.11,7.35-15.91,11.33-23.55C656.4,362.08,671.15,342.52,687.62,325.12Z" transform="translate(0.31 -1.98)"/><path class="cls-6" d="M957.72,284.16c-.41-2.35,1.25-7,1.64-9.53-10.05-7-22.23-16.21-35.1-15.37l-.81.07c-1.29.08-3.9.06-4.87-.81l.24-.17c11.39-2.61,36.85,6.53,48,10.32-2.2,4.38-5,9-6.63,13.56Z" transform="translate(0.31 -1.98)"/><path class="cls-6" d="M639.31,415.66l.57-2c5.68-4.15,4.51-16.5,8.31-22.61,4.44,9.25,11.84,16.91,21.72,20.28a11.57,11.57,0,0,0,2.39.51l.19.52c-3.66,5.56-5.15,15.17-6.81,21.72-9-4.43-16.69-11.19-23.32-18.75a2.17,2.17,0,0,0-1.82.35Z" transform="translate(0.31 -1.98)"/><path class="cls-6" d="M872.89,255.6c8-1.43,17-.67,25-.39a205.68,205.68,0,0,1-35,39.83c-32.39,28.7-75.43,48.67-119.46,46-4.74-.28-9.47-.78-14.17-1.47s-9.38-1.59-14-2.69C758,290.59,809.41,261.39,872.89,255.6Z" transform="translate(0.31 -1.98)"/><path class="cls-3" d="M973.78,252.33c11.42,3.31,22.35,8,33.47,12.16,8.79,4.14,47.48,23.34,50.21,29.81-.47,3.19-2.22,4.84-4.53,7-1.61,4.29-4.16,12.07-7.37,15.15,1.21,8.82-5.15,36.41-10.72,43.65a11.53,11.53,0,0,1-5.15,3.65c-1.93,2.9-6.69,4-9.94,4.66-24.66,4.7-38.71-4.08-56,20.84-12.9,18.53-18.34,45.67-44.14,50.22-20.2,3.56-41.27-4.17-61.27,2.38-26.9,8.8-38.85,42.55-66.52,48-26,5.1-49.26-17.76-74.69-9.77-23.51,7.39-29.77,29.21-58.2,33.88,0-19.79.23-39.29,2.61-59-.92-2.19-3.67-4.48-5.21-6.35-8.4-10.18-13.84-19.61-15.74-33a2.17,2.17,0,0,1,1.82-.35c6.63,7.56,14.27,14.32,23.32,18.75,1.66-6.55,3.15-16.16,6.81-21.72,36,9,53.61-21.81,85.54-28.16,23.22-4.62,44.75,3.42,67.46-7.36,25.87-12.28,39.43-38.17,62.59-50,7.79-4,15.71-5.72,24.1-7.87,5.44-1.39,10.87-3.81,16.43-4.56,13-6.64,23.41-16.64,29.11-30.23l2.48-1.93c1.62-4.6,4.43-9.18,6.63-13.56C969.44,263.31,972.09,258.08,973.78,252.33Z" transform="translate(0.31 -1.98)"/><path class="cls-1" d="M966.83,268.67c10.61,3.64,22.61,7.49,32.27,13.24a52.24,52.24,0,0,1-7.41,16l-.71.38c.8-3,2.82-6.12,4.2-8.89l-3.46-9.89c-7.92-2.22-16-6.48-23.77-9.34-2.27,4.41-4.6,8.72-7.16,13l-.59-.95C961.82,277.63,964.63,273.05,966.83,268.67Z" transform="translate(0.31 -1.98)"/><path class="cls-6" d="M1007.25,264.49c8.79,4.14,47.48,23.34,50.21,29.81-.47,3.19-2.22,4.84-4.53,7-1.61,4.29-4.16,12.07-7.37,15.15-12.88-14.92-29.16-24.94-46-34.65C1000.59,276.69,1005.08,269.54,1007.25,264.49Z" transform="translate(0.31 -1.98)"/><path class="cls-6" d="M672.49,412.37c36,9,53.61-21.81,85.54-28.16,23.22-4.62,44.75,3.42,67.46-7.36,25.87-12.28,39.43-38.17,62.59-50,7.79-4,15.71-5.72,24.1-7.87,5.44-1.39,10.87-3.81,16.43-4.56-1.34,2.43-7,3.59-9.7,4.37-28.07,8-31.19,6.9-52.7,27.65-5.61,5.42-12,10.8-16.81,16.95.65,1.63.78,3,2.54,3.76,7.9,3.38,19.07.13,26.39-3.21,3.47-1.58,18.62-15.7,23.64-19.28,9.6-6.86,20.28-11.77,30.65-17.25-9.49,8-25.72,15.1-37,23.66-31.35,23.69-48,54-91.1,60.84-19.06,3-37.4-3.18-56.49,2.43-23.2,6.83-44.84,24-69.8,22.05a60.86,60.86,0,0,1-12.8-2.61q-2,10.37-3.81,20.76l-.09.49c-.92-2.19-3.67-4.48-5.21-6.35-8.4-10.18-13.84-19.61-15.74-33a2.17,2.17,0,0,1,1.82-.35c6.63,7.56,14.27,14.32,23.32,18.75C667.34,427.54,668.83,417.93,672.49,412.37Z" transform="translate(0.31 -1.98)"/><path class="cls-8" d="M971.53,332.39c9.26-8.16,15.59-21,21.35-31.83,7.19,4.47,42.47,38.79,46,44.75.43,6.06-5.51,14-9.21,18.48-1.93,2.9-6.69,4-9.94,4.66-24.66,4.7-38.71-4.08-56,20.84-12.9,18.53-18.34,45.67-44.14,50.22-20.2,3.56-41.27-4.17-61.27,2.38-26.9,8.8-38.85,42.55-66.52,48-26,5.1-49.26-17.76-74.69-9.77-23.51,7.39-29.77,29.21-58.2,33.88,0-19.79.23-39.29,2.61-59l.09-.49c10.13,4.13,18.88,7.33,30,6.36,20.76-1.79,38.8-14.95,59-19.4,21.6-4.76,43.9-.8,65.66-5.36q5.06-1,10-2.54t9.75-3.39q4.8-1.9,9.42-4.22t9-5c24.25-15.14,42.28-37.83,65.28-54.59C931.21,358,965.32,341.9,971.53,332.39Z" transform="translate(0.31 -1.98)"/><path class="cls-3" d="M1319.49,276.73c2.21.09,5.07-.16,7.13.59l-3.69.85c-.87,6,9.75,20.79,13.25,25.54a19.36,19.36,0,0,0,5.33,4.79l.25,1-2.51.33a27.28,27.28,0,0,1,10.82,19c.78,6.59-.57,16.43-4.93,21.67a6.71,6.71,0,0,1-.84.85c1,4.45-4.38,12.66-6.83,16.44-16.72,25.75-38.32,47-62,66.3-4.73,3.86-9.94,8.94-15.36,11.63-.3,2.67-1.12,3.29-3.18,5a27.76,27.76,0,0,1-6.3,3.63c1.07,7.85-8.4,18-7.38,23.46l1.75-.25c-1.66,2.8-6.32,4.76-9.32,6.1-6,5.11-23.66,15.73-30.79,17.76-3.71,5.14-27,19-33.1,21.38-5.33,4.35-13.78,8.75-20.1,11.55-19.65,14.28-46.44,26.89-68.08,38.85C977.29,631.93,868.93,677.85,755,719.39l-4,.83-.09-1c-3-.53-11.75,5.26-13.48,4.22-2.63-1.56-4.22-5.7-7.4-7.4-6-3.23-13.85,5.07-21.06,3.49-15,3.72-29.78,8.53-44.79,12.35-9.72,2.48-24.58,4.62-33.38,8.42l.12,1c-7.31,2.6-15.53,3.44-23.1,5.29,6.88,3.27,8.39,9.83,12.69,12,2.73,1.39,8.56-2.36,9.69-.08-6.45,2.13-13.22,3.37-19.85,4.8L593,766.68q-17.43,3.77-35,6.69-18,3.35-36.32,5.12t-36.63,2c-4,.15-7.94.08-11.9,0-23.23-.24-58.82-3.38-75.9-21.25a30.16,30.16,0,0,1-8.33-22.69c1-26.12,27.35-52.49,45.15-69.1,9.46-8.66,18.15-18.08,27.78-26.62,9.09-8.52,19.3-16.13,29.2-23.68,3.78-2.93,7.6-6.33,11.91-8.45,4.09-4,9.4-7.23,14.09-10.51,4.18-3.28,8.83-6.15,13.22-9.15,10-5.95,20.06-11.84,29.61-18.46,14.94-9.25,35.43-21.75,52.23-26.4.08-7.55-1.32-15.49-1.49-23.14-.34-14.77,1.19-29.57,2.89-44.23.6,4.29,2.51,7.69,4.5,11.45a26.49,26.49,0,0,1,2.63,4.3c8,10.54,16.48,19,30.25,20.93a40.29,40.29,0,0,0,8,.5c28.43-4.67,34.69-26.49,58.2-33.88,25.43-8,48.72,14.87,74.69,9.77,27.67-5.43,39.62-39.18,66.52-48,20-6.55,41.07,1.18,61.27-2.38,25.8-4.55,31.24-31.69,44.14-50.22,17.34-24.92,31.39-16.14,56-20.84,3.25-.61,8-1.76,9.94-4.66a11.53,11.53,0,0,0,5.15-3.65c5.57-7.24,11.93-34.83,10.72-43.65,3.21-3.08,5.76-10.86,7.37-15.15,2.31-2.2,4.06-3.85,4.53-7,11.93,4.77,22.43,17.26,32.65,25,17.54-6.2,35.87-10.06,53.54-15.86a49.33,49.33,0,0,0,9.57-2.79c10.58-1.19,22.89-4.19,33.12-7.27,4.4-.33,19.35-2.22,22.81-4.25a154.13,154.13,0,0,0,25.34-4.62c12.87-1.2,25.88-3.25,38.65-5.35C1281,279.29,1313.84,278.26,1319.49,276.73Z" transform="translate(0.31 -1.98)"/><path class="cls-6" d="M1153.22,300.64c-.23,1.47-.51,2.89-.85,4.34l.52,0a8.08,8.08,0,0,1,2.9.92l.06.69-5.29,1-6.25.89-1.5-1.77c.26-1.1.54-2.2.84-3.29A49.33,49.33,0,0,0,1153.22,300.64Z" transform="translate(0.31 -1.98)"/><path class="cls-9" d="M1090.11,319.29c17.54-6.2,35.87-10.06,53.54-15.86-.3,1.09-.58,2.19-.84,3.29l1.5,1.77c-4.25,2.62-43.24,13.08-50.11,14.32A13.28,13.28,0,0,1,1090.11,319.29Z" transform="translate(0.31 -1.98)"/><path class="cls-10" d="M1105.43,336.68c16.48-4.6,33.08-8.61,49.67-12.79-.69,2.44-.9,3.11-.33,5.54.67.71,1.36,1.4,2,2.13-7.2,3.26-36,8.43-46,11A29.23,29.23,0,0,0,1105.43,336.68Z" transform="translate(0.31 -1.98)"/><path class="cls-6" d="M682,685.06c11.53-2.11,22.94-5.09,34.35-7.79,2.62,3,6.74,6.84,7.91,10.69-8.91,2.37-18.42,4.25-27.1,7.27C691.24,692,689.13,686.52,682,685.06Z" transform="translate(0.31 -1.98)"/><path class="cls-11" d="M1165.63,330c11.95-.08,23.64-3,35.76-2.72l.62.12c3.39.68,7.6.28,10.52,2.17l-.54,1.33c-7,2.25-19.11,1.3-27,2.28-12.53,1.57-24.73,4.47-37.18,6.37-7.63-.82-29.06,9.12-33.83,6.33a14.22,14.22,0,0,1-2.93-2.87c-.12-.15-.23-.31-.34-.46,10.07-2.53,38.83-7.7,46-11C1159.59,331.41,1163.21,331.47,1165.63,330Z" transform="translate(0.31 -1.98)"/><path class="cls-12" d="M730,666.7c3.91.91,31-9.72,36.1-11.5Q787,648,807.68,640.4t41.19-15.82q20.49-8.15,40.79-16.8T930,590q20.07-9.13,39.92-18.77t39.46-19.73q19.61-10.11,39-20.69t38.45-21.63c20.24-12,40.35-24.67,59.92-37.71,10.31-6.87,45.61-35.18,53.73-37.57l.43.94-2.26,2.68c-2.81,5.64-22.18,19.68-28.27,23.07-18.76,15.94-40.8,29.46-61.65,42.49-100.1,62.53-222,117.41-333.73,155.76-13.61,4.68-45,16.67-58.3,18l-2.39-5Q722.2,669.37,730,666.7Z" transform="translate(0.31 -1.98)"/><path class="cls-13" d="M716.7,676.82c13.28-1.33,44.69-13.32,58.3-18,111.75-38.35,233.63-93.23,333.73-155.76,20.85-13,42.89-26.55,61.65-42.49a16,16,0,0,1,4.33,6.51c-1.91,8.29-13.22,8.49-15.85,14.94-3.06,5.53-41.41,27.88-49.07,32.42-93.6,55.48-184.47,98.89-285.46,138.87C800,663,774.82,671,750.06,679.68c-8,2.81-16.79,5-24.57,8.3l-1.24,0c-1.17-3.85-5.29-7.68-7.91-10.69Z" transform="translate(0.31 -1.98)"/><path class="cls-14" d="M613.58,545.1c6.16,10.16-1.69,25.06,8,33.12,1.29,4,5.26,12.77,4.21,16.39l-1.17.75-5-3.29-2.6-10.3L614,565.68c-12,6.1-36.16,22.1-45.47,31.46-6.29,3.33-12.26,9.36-17.76,13.92-14.29,13.41-43.8,39.67-44.27,60.45a67.68,67.68,0,0,0,.24,7.4c5.68,9.8,12.38,14.57,23.35,17.52,35.72,9.61,81,3.12,117.25-3.19,7.62-1.33,17.7-2.28,24.53-5.63,3.43-.68,6.78-1.62,10.15-2.55,7.14,1.46,9.25,6.89,15.16,10.17,8.68-3,18.19-4.9,27.1-7.27l1.24,0,2.66,4.34-2,.56c-15.28,5.36-31.26,8.36-46.61,13.34-16.12,3.44-32,7.92-48.17,11.19-37.08,7.5-117.43,20.24-149.66.05l-1-.68.15-.38c.07-.21.14-.42.22-.63,1.69-4.57,1.7-9.45,2-14.27a67.8,67.8,0,0,1-5.49-12.16c-1.95-5.63-5.35-14.23-2.62-19.88,4.92-15.76,33.21-39.62,45.54-50.53.24-5.75,13.27-9.64,15.42-15.09-4.94-1.44-9.69,4.23-14.31,5.59l-.69.2C527,604,535.11,599.07,542,594.45c13.34-8.91,26.8-17.94,40.9-25.63,9.46-5.16,19.43-9.25,28.92-14.39,1.56-2.38,1-3.48.67-6.21Z" transform="translate(0.31 -1.98)"/><path class="cls-15" d="M520.5,618.93c7.35-4.19,14.28-11.54,21.08-16.74,12.14-9.28,56.26-40,69.75-41.33-5.1,5.37-15.63,9.6-22.11,13.65-15.86,9.94-33.8,21.39-47.35,34.28l-.73.7c-18.5,12.06-51.5,46.36-55.78,67.76-1.28,6.38-.26,13.69,3.46,19.11,7.45,10.85,24,15.45,36.41,17.6,55.28,9.57,118.16-6,171.92-18.73,8.68-3,18.19-4.9,27.1-7.27l1.24,0,2.66,4.34-2,.56c-15.28,5.36-31.26,8.36-46.61,13.34-16.12,3.44-32,7.92-48.17,11.19-37.08,7.5-117.43,20.24-149.66.05l-1-.68.15-.38c.07-.21.14-.42.22-.63,1.69-4.57,1.7-9.45,2-14.27a67.8,67.8,0,0,1-5.49-12.16c-1.95-5.63-5.35-14.23-2.62-19.88C479.88,653.7,508.17,629.84,520.5,618.93Z" transform="translate(0.31 -1.98)"/><path class="cls-16" d="M1319.49,276.73c2.21.09,5.07-.16,7.13.59l-3.69.85c-.87,6,9.75,20.79,13.25,25.54a19.36,19.36,0,0,0,5.33,4.79l.25,1-2.51.33a27.28,27.28,0,0,1,10.82,19c.78,6.59-.57,16.43-4.93,21.67a6.71,6.71,0,0,1-.84.85c.25-1.66.58-3.29.94-4.93a5.51,5.51,0,0,0-3.2-3c-2,3.21-1.84,4.43-5.43,6.16.67,8.42-16.16,29.26-21.53,35.57-14.72,17.31-51.92,53.75-71.84,64.72-11.35,9.49-30.61,23.55-44.26,29.36-5.24,6.6-43.61,26.83-52.81,32.19-32.89,19.17-65.19,39-98.73,57.07-31.58,17-64.64,32.28-97.09,47.56q-69.12,33-140.66,60.47c-23.56,9.13-47.21,18.29-71.36,25.76-3.57-3.79-7.05-7.94-12.19-9.44l2-.56L725.49,688c7.78-3.33,16.55-5.49,24.57-8.3C774.82,671,800,663,824.33,653.31c101-40,191.86-83.39,285.46-138.87,7.66-4.54,46-26.89,49.07-32.42,2.63-6.45,13.94-6.65,15.85-14.94a16,16,0,0,0-4.33-6.51c6.09-3.39,25.46-17.43,28.27-23.07a10.7,10.7,0,0,0,2.3-1.07c4.75-3.08,32.43-29.64,33.2-33.76,2.66-5.08,7.89-9.65,11.41-14.31,10.47-13.83,5.37-16.87,8.87-29.44.89-3.2,4.83-7.16,4.14-10.45-1.89-9.06-13.87-13.37-21-17.47-7.56-4.33-27.36-4.12-36.19-3.75-12.12-.31-23.81,2.64-35.76,2.72-2.42,1.5-6,1.44-8.85,1.59-.65-.73-1.34-1.42-2-2.13-.57-2.43-.36-3.1.33-5.54a51.94,51.94,0,0,0,8.82-1.92c5.59-.52,13.54-1.14,18.59-3.53-2.33-.65-4.33.33-6.48-1l-.43-3.38c-5.17,1.08-10.36,2.1-15.5,3.27s-10.54,2.57-15.77,2.88a4.23,4.23,0,0,1-.4.34c-2.63,1.79-39.57,11.45-42.3,11.06-1.47-1.21-2.48-1.95-3.05-3.8,3.4-2.61,39.28-12.06,46.32-13.79l2-1.1c3.39-.19,7.76-.82,10.67-2.58l.61-2.72-2.34-1-.06-.69a8.08,8.08,0,0,0-2.9-.92l-.52,0c.34-1.45.62-2.87.85-4.34,10.58-1.19,22.89-4.19,33.12-7.27,4.4-.33,19.35-2.22,22.81-4.25a154.13,154.13,0,0,0,25.34-4.62c12.87-1.2,25.88-3.25,38.65-5.35C1281,279.29,1313.84,278.26,1319.49,276.73Z" transform="translate(0.31 -1.98)"/><path class="cls-3" d="M1285.58,293.32c14.16.32,32.21,4,44.89,10.45l.81,1.22a14.61,14.61,0,0,1,8,4.88,27.28,27.28,0,0,1,10.82,19c.78,6.59-.57,16.43-4.93,21.67a6.71,6.71,0,0,1-.84.85c.25-1.66.58-3.29.94-4.93a5.51,5.51,0,0,0-3.2-3c-2,3.21-1.84,4.43-5.43,6.16a10.68,10.68,0,0,0,1.08-1.33c3.27-4.91,4-13.13,3-18.8A22.85,22.85,0,0,0,1331,314c-.16-.2-.3-.4-.46-.59-8.34-9.54-35.16-13.8-47.39-15-.35-1.5-.74-3-1.18-4.44Z" transform="translate(0.31 -1.98)"/><path class="cls-17" d="M1319.49,276.73c2.21.09,5.07-.16,7.13.59l-3.69.85c-.87,6,9.75,20.79,13.25,25.54a19.36,19.36,0,0,0,5.33,4.79l.25,1-2.51.33a14.61,14.61,0,0,0-8-4.88l-.81-1.22c-12.68-6.47-30.73-10.13-44.89-10.45l-3.64.64c.44,1.47.83,2.94,1.18,4.44-30.65-3.55-62.12.38-92.35,5.86-10.67,1.93-22.47,5.6-33.19,6.08l.61-2.72-2.34-1-.06-.69a8.08,8.08,0,0,0-2.9-.92l-.52,0c.34-1.45.62-2.87.85-4.34,10.58-1.19,22.89-4.19,33.12-7.27,4.4-.33,19.35-2.22,22.81-4.25a154.13,154.13,0,0,0,25.34-4.62c12.87-1.2,25.88-3.25,38.65-5.35C1281,279.29,1313.84,278.26,1319.49,276.73Z" transform="translate(0.31 -1.98)"/><path class="cls-18" d="M1155.79,306c11.84-.69,26.16-5.42,38.11-7.64,23.54-4.36,46.65-5.91,70.57-6.07,5.81,0,15.9-1,21.11,1.08l-3.64.64c.44,1.47.83,2.94,1.18,4.44-30.65-3.55-62.12.38-92.35,5.86-10.67,1.93-22.47,5.6-33.19,6.08l.61-2.72-2.34-1Z" transform="translate(0.31 -1.98)"/><path class="cls-19" d="M1175.6,314.06c32.47-5.78,92.38-13.3,120.59,6.14,5.8,4,10,9.58,11.12,16.61,2.41,14.6-8,31.66-16.38,43-18.34,24.86-43.11,45.95-67.61,64.41-4.35,3.27-8.66,7.11-13.21,10a24.94,24.94,0,0,1-8,5.43c4.43-6.78,18.18-15.49,24.9-20.76,2.2-3,3.31-6.88,5.63-10l.45-.61-.29-1.61A233.74,233.74,0,0,0,1252.59,408c14.72-15.38,37.37-39.81,36.57-62.83a24.81,24.81,0,0,0-8.21-17.92c-23.56-21.39-70.1-10.51-98.44-8.79-2.33-.65-4.33.33-6.48-1Z" transform="translate(0.31 -1.98)"/><path class="cls-20" d="M1232.76,426.7l.29,1.61-.45.61c-2.32,3.13-3.43,7-5.63,10-6.72,5.27-20.47,14-24.9,20.76-2.75,5-25.44,18.44-31.58,22.75C1089.87,539,995.11,585,905,624.64c-57.35,25.25-116.74,49.82-176.86,67.68L725.49,688c7.78-3.33,16.55-5.49,24.57-8.3C774.82,671,800,663,824.33,653.31c101-40,191.86-83.39,285.46-138.87,7.66-4.54,46-26.89,49.07-32.42C1169.41,478.54,1222.67,436.57,1232.76,426.7Z" transform="translate(0.31 -1.98)"/><path class="cls-21" d="M1182.51,318.44c28.34-1.72,74.88-12.6,98.44,8.79a24.81,24.81,0,0,1,8.21,17.92c.8,23-21.85,47.45-36.57,62.83a233.74,233.74,0,0,1-19.83,18.72c-10.09,9.87-63.35,51.84-73.9,55.32,2.63-6.45,13.94-6.65,15.85-14.94a16,16,0,0,0-4.33-6.51c6.09-3.39,25.46-17.43,28.27-23.07a10.7,10.7,0,0,0,2.3-1.07c4.75-3.08,32.43-29.64,33.2-33.76,2.66-5.08,7.89-9.65,11.41-14.31,10.47-13.83,5.37-16.87,8.87-29.44.89-3.2,4.83-7.16,4.14-10.45-1.89-9.06-13.87-13.37-21-17.47-7.56-4.33-27.36-4.12-36.19-3.75-12.12-.31-23.81,2.64-35.76,2.72-2.42,1.5-6,1.44-8.85,1.59-.65-.73-1.34-1.42-2-2.13-.57-2.43-.36-3.1.33-5.54a51.94,51.94,0,0,0,8.82-1.92C1169.51,321.45,1177.46,320.83,1182.51,318.44Z" transform="translate(0.31 -1.98)"/><path class="cls-6" d="M1163.92,322c-.06.23-.12.47-.2.7a4.37,4.37,0,0,1-1.86,2.14c-.72,1.95-1.26,2.56-.63,4.58a6.73,6.73,0,0,0,3.8-.12l.6.7c-2.42,1.5-6,1.44-8.85,1.59-.65-.73-1.34-1.42-2-2.13-.57-2.43-.36-3.1.33-5.54A51.94,51.94,0,0,0,1163.92,322Z" transform="translate(0.31 -1.98)"/><path class="cls-6" d="M1237.58,331c7.65,1.47,15.09,4.88,19.51,11.56,4.16,6.29,4.94,13.51,3.29,20.77-2.66,11.73-14.89,32.51-25.17,38.83a4.83,4.83,0,0,1-1.06.51c2.66-5.08,7.89-9.65,11.41-14.31,10.47-13.83,5.37-16.87,8.87-29.44.89-3.2,4.83-7.16,4.14-10.45C1256.68,339.41,1244.7,335.1,1237.58,331Z" transform="translate(0.31 -1.98)"/><path class="cls-22" d="M1336.61,349.62c3.59-1.73,3.42-2.95,5.43-6.16a5.51,5.51,0,0,1,3.2,3c-.36,1.64-.69,3.27-.94,4.93,1,4.45-4.38,12.66-6.83,16.44-16.72,25.75-38.32,47-62,66.3-4.73,3.86-9.94,8.94-15.36,11.63-.3,2.67-1.12,3.29-3.18,5a27.76,27.76,0,0,1-6.3,3.63c1.07,7.85-8.4,18-7.38,23.46l1.75-.25c-1.66,2.8-6.32,4.76-9.32,6.1-6,5.11-23.66,15.73-30.79,17.76-3.71,5.14-27,19-33.1,21.38-5.33,4.35-13.78,8.75-20.1,11.55-19.65,14.28-46.44,26.89-68.08,38.85C977.29,631.93,868.93,677.85,755,719.39l-4,.83-.09-1c-3-.53-11.75,5.26-13.48,4.22-2.63-1.56-4.22-5.7-7.4-7.4-6-3.23-13.85,5.07-21.06,3.49-15,3.72-29.78,8.53-44.79,12.35-9.72,2.48-24.58,4.62-33.38,8.42l.12,1c-7.31,2.6-15.53,3.44-23.1,5.29,6.88,3.27,8.39,9.83,12.69,12,2.73,1.39,8.56-2.36,9.69-.08-6.45,2.13-13.22,3.37-19.85,4.8L593,766.68q-17.43,3.77-35,6.69-18,3.35-36.32,5.12t-36.63,2c-4,.15-7.94.08-11.9,0-23.23-.24-58.82-3.38-75.9-21.25a30.16,30.16,0,0,1-8.33-22.69c1-26.12,27.35-52.49,45.15-69.1,9.46-8.66,18.15-18.08,27.78-26.62,9.09-8.52,19.3-16.13,29.2-23.68,3.78-2.93,7.6-6.33,11.91-8.45,4.09-4,9.4-7.23,14.09-10.51,4.18-3.28,8.83-6.15,13.22-9.15,10-5.95,20.06-11.84,29.61-18.46,14.94-9.25,35.43-21.75,52.23-26.4l1.46.93-1.06,3.12c.34,2.73.89,3.83-.67,6.21-9.49,5.14-19.46,9.23-28.92,14.39-14.1,7.69-27.56,16.72-40.9,25.63-6.92,4.62-15,9.5-21.11,15.18l.69-.2c4.62-1.36,9.37-7,14.31-5.59-2.15,5.45-15.18,9.34-15.42,15.09-12.33,10.91-40.62,34.77-45.54,50.53-2.73,5.65.67,14.25,2.62,19.88a67.8,67.8,0,0,0,5.49,12.16c-.31,4.82-.32,9.7-2,14.27-.08.21-.15.42-.22.63l-.15.38,1,.68c32.23,20.19,112.58,7.45,149.66-.05,16.16-3.27,32-7.75,48.17-11.19,15.35-5,31.33-8,46.61-13.34,5.14,1.5,8.62,5.65,12.19,9.44,24.15-7.47,47.8-16.63,71.36-25.76q71.53-27.42,140.66-60.47c32.45-15.28,65.51-30.56,97.09-47.56,33.54-18,65.84-37.9,98.73-57.07,9.2-5.36,47.57-25.59,52.81-32.19,13.65-5.81,32.91-19.87,44.26-29.36,19.92-11,57.12-47.41,71.84-64.72C1320.45,378.88,1337.28,358,1336.61,349.62Z" transform="translate(0.31 -1.98)"/><path class="cls-6" d="M679.53,706.22c15.35-5,31.33-8,46.61-13.34,5.14,1.5,8.62,5.65,12.19,9.44-14.94,4.75-38.76,14-53.51,16l.35-1.34c3.67-1.23,7.38-1.74,11.08-2.75,2.51-.7,3.14-1.15,4.4-3.3-.67-3.18-3.85-5.24-6.21-7.25C689.85,705,684.29,707.24,679.53,706.22Z" transform="translate(0.31 -1.98)"/><path class="cls-23" d="M520.92,609.63l.69-.2c4.62-1.36,9.37-7,14.31-5.59-2.15,5.45-15.18,9.34-15.42,15.09-12.33,10.91-40.62,34.77-45.54,50.53-2.73,5.65.67,14.25,2.62,19.88a67.8,67.8,0,0,0,5.49,12.16c-.31,4.82-.32,9.7-2,14.27-.08.21-.15.42-.22.63l-.15.38,1,.68c32.23,20.19,112.58,7.45,149.66-.05,16.16-3.27,32-7.75,48.17-11.19,4.76,1,10.32-1.18,14.91-2.51,2.36,2,5.54,4.07,6.21,7.25-1.26,2.15-1.89,2.6-4.4,3.3-3.7,1-7.41,1.52-11.08,2.75l-.35,1.34c-15.76,5.63-32.88,9.24-49.19,12.93-5.92,1.34-18.23,2.64-23.17,5.34-8.4.85-17,3-25.32,4.45-18.72,3.24-37.47,5.73-56.5,5.86-24.32.17-63.49-.09-81.81-18.57a27.42,27.42,0,0,1-8.13-20.25C441.38,677,479,645.45,499.77,626,507.1,620.92,513.36,614.49,520.92,609.63Z" transform="translate(0.31 -1.98)"/><path class="cls-6" d="M480.69,716.78c-.35-.22-.7-.44-1-.68-6.6-4.72-11.59-10.48-12.89-18.72-1.55-9.93,2.49-20,8.2-27.92-2.73,5.65.67,14.25,2.62,19.88a67.8,67.8,0,0,0,5.49,12.16c-.31,4.82-.32,9.7-2,14.27-.08.21-.15.42-.22.63Z" transform="translate(0.31 -1.98)"/><path class="cls-24" d="M1260.14,445.73c-.3,2.67-1.12,3.29-3.18,5a27.76,27.76,0,0,1-6.3,3.63c1.07,7.85-8.4,18-7.38,23.46l1.75-.25c-1.66,2.8-6.32,4.76-9.32,6.1-6,5.11-23.66,15.73-30.79,17.76-3.71,5.14-27,19-33.1,21.38-5.33,4.35-13.78,8.75-20.1,11.55-19.65,14.28-46.44,26.89-68.08,38.85C977.29,631.93,868.93,677.85,755,719.39l-4,.83-.09-1c-3-.53-11.75,5.26-13.48,4.22-2.63-1.56-4.22-5.7-7.4-7.4-6-3.23-13.85,5.07-21.06,3.49,13.91-5.94,29.44-9.86,43.78-14.79q38.85-13.77,77.23-28.81,40.46-16,80.27-33.6t78.92-36.68q39.09-19.11,77.44-39.7t75.85-42.67c24.7-14.63,64.93-36,85.65-53.79,4.66-2.6,14.42-8.85,17-13.24C1249.48,455.37,1257.22,449.12,1260.14,445.73Z" transform="translate(0.31 -1.98)"/><path class="cls-6" d="M1260.14,445.73c-.3,2.67-1.12,3.29-3.18,5a27.76,27.76,0,0,1-6.3,3.63c1.07,7.85-8.4,18-7.38,23.46l1.75-.25c-1.66,2.8-6.32,4.76-9.32,6.1-6,5.11-23.66,15.73-30.79,17.76,1.78-4.93,18.74-10.8,23.61-14.43,4.5-3.36,2.87-10,3.71-15.06a3.51,3.51,0,0,0-.4-2.62l-3.72.16c4.66-2.6,14.42-8.85,17-13.24C1249.48,455.37,1257.22,449.12,1260.14,445.73Z" transform="translate(0.31 -1.98)"/><path class="cls-25" d="M612.12,544.17l1.46.93-1.06,3.12c.34,2.73.89,3.83-.67,6.21-9.49,5.14-19.46,9.23-28.92,14.39-14.1,7.69-27.56,16.72-40.9,25.63-6.92,4.62-15,9.5-21.11,15.18-7.56,4.86-13.82,11.29-21.15,16.36,1-3.3,3.06-4.52,5.75-6.62l-.07-1.57-2.69-1.91c-25.64,22-70.79,60.82-73.25,97.13a30.39,30.39,0,0,0,7.83,22.83c13.87,15.27,42.83,18.18,62.26,18.87,26.65.95,56.56-.13,82.73-5.58,15.65-.51,33-5.87,48.48-8.86l.12,1c-7.31,2.6-15.53,3.44-23.1,5.29,6.88,3.27,8.39,9.83,12.69,12,2.73,1.39,8.56-2.36,9.69-.08-6.45,2.13-13.22,3.37-19.85,4.8L593,766.68q-17.43,3.77-35,6.69-18,3.35-36.32,5.12t-36.63,2c-4,.15-7.94.08-11.9,0-23.23-.24-58.82-3.38-75.9-21.25a30.16,30.16,0,0,1-8.33-22.69c1-26.12,27.35-52.49,45.15-69.1,9.46-8.66,18.15-18.08,27.78-26.62,9.09-8.52,19.3-16.13,29.2-23.68,3.78-2.93,7.6-6.33,11.91-8.45,4.09-4,9.4-7.23,14.09-10.51,4.18-3.28,8.83-6.15,13.22-9.15,10-5.95,20.06-11.84,29.61-18.46C574.83,561.32,595.32,548.82,612.12,544.17Z" transform="translate(0.31 -1.98)"/><path class="cls-3" d="M612.52,548.22c.34,2.73.89,3.83-.67,6.21-9.49,5.14-19.46,9.23-28.92,14.39-14.1,7.69-27.56,16.72-40.9,25.63-6.92,4.62-15,9.5-21.11,15.18-7.56,4.86-13.82,11.29-21.15,16.36,1-3.3,3.06-4.52,5.75-6.62l-.07-1.57-2.69-1.91c5.93-4.76,12.14-9.17,18.28-13.65q10.69-7.93,21.78-15.29t22.54-14.12q11.46-6.78,23.25-12.93T612.52,548.22Z" transform="translate(0.31 -1.98)"/><path class="cls-1" d="M1146,352.11c19.9-2.16,53.21-7.63,70.15,5.71a14.59,14.59,0,0,1,5.49,10.38c1.07,12.6-9.7,26.68-17.59,35.75-7.57,8.69-30.45,33.29-40.06,37.21-.7,2.73-4,5-6.36,6.4a14,14,0,0,1-3.26,1.51c-1.55,4.45-12.09,10.64-16.2,13.64-42.14,30.78-87.85,59.1-134.9,81.81l-1.93.93Q941.21,576.08,878.88,602q-28.49,11.7-57.28,22.63c-9.4,3.54-19.31,6.47-28.54,10.36L788,637c-26.62,9-53.46,18-80.71,24.9-4.15-5.36-12-20.82-17.41-23.1-21.35,1.77-40.49-5.53-59.55-14.41a261.35,261.35,0,0,0,24.18,47.89c-20,2.54-40.42,4.41-60.65,4.21-12.66-.12-36.2.18-45.56-9.72a12.92,12.92,0,0,1-3.44-9.42c.59-18.35,28.71-41.66,41.56-53.44,9.86-8.07,19.68-15.62,30.63-22.18l2.6,10.3,5,3.29c14.66,13,37,23.93,56.68,25.54l3,0c23.9-2.78,33.88-32.15,57.92-35.69,18.63-2.74,38.69,5.58,57.72,5.56,42.11,0,53.27-28.51,78.85-54.1,26.86-26.87,41.91-16.73,73.24-17.08,44.56-.5,40.3-45.28,71.15-60.46,16.43-8.09,41-2.32,54-16.14,13.3-14.25,11.15-40.44,23.07-52.21,4.39-4.34,9.65-4.84,15.55-4.85,9.73,1.22,19,5.23,28,8.94.57.24.28.25.87-.13-.39-9.89-20.67-29.7-19.84-37.32l1.83-1C1131.66,355.33,1142,354.89,1146,352.11Z" transform="translate(0.31 -1.98)"/><path class="cls-1" d="M1052.93,301.34c11,4.91,26.36,25.46,30.73,36.44a5.38,5.38,0,0,1,.4,2.05c8.07,5.72,32.06,36,37.36,44.8l.06.94c-1.92.08-3.82.13-5.71.38-5.9,0-11.16.51-15.55,4.85-11.92,11.77-9.77,38-23.07,52.21-12.9,13.82-37.52,8.05-54,16.14-30.85,15.18-26.59,60-71.15,60.46-31.33.35-46.38-9.79-73.24,17.08-25.58,25.59-36.74,54-78.85,54.1-19,0-39.09-8.3-57.72-5.56-24,3.54-34,32.91-57.92,35.69l-3,0c-19.7-1.61-42-12.54-56.68-25.54l1.17-.75c1.05-3.62-2.92-12.42-4.21-16.39-9.71-8.06-1.86-23-8-33.12l-1.46-.93c.08-7.55-1.32-15.49-1.49-23.14-.34-14.77,1.19-29.57,2.89-44.23.6,4.29,2.51,7.69,4.5,11.45a26.49,26.49,0,0,1,2.63,4.3c8,10.54,16.48,19,30.25,20.93a40.29,40.29,0,0,0,8,.5c28.43-4.67,34.69-26.49,58.2-33.88,25.43-8,48.72,14.87,74.69,9.77,27.67-5.43,39.62-39.18,66.52-48,20-6.55,41.07,1.18,61.27-2.38,25.8-4.55,31.24-31.69,44.14-50.22,17.34-24.92,31.39-16.14,56-20.84,3.25-.61,8-1.76,9.94-4.66a11.53,11.53,0,0,0,5.15-3.65c5.57-7.24,11.93-34.83,10.72-43.65C1048.77,313.41,1051.32,305.63,1052.93,301.34Z" transform="translate(0.31 -1.98)"/><path class="cls-3" d="M612.12,544.17c.08-7.55-1.32-15.49-1.49-23.14-.34-14.77,1.19-29.57,2.89-44.23.6,4.29,2.51,7.69,4.5,11.45a26.49,26.49,0,0,1,2.63,4.3c-6.35,11.83-1.78,35.68-2.4,49.05,7.26,10.86,16.47,18.19,29.55,20.88a45,45,0,0,0,15,.79c3.68,2.31,5.44,15.57,6.55,20.47,2.17,9.5,11.32,30.62,11.94,37.16-19.7-1.61-42-12.54-56.68-25.54l1.17-.75c1.05-3.62-2.92-12.42-4.21-16.39-9.71-8.06-1.86-23-8-33.12Z" transform="translate(0.31 -1.98)"/><path class="cls-26" d="M1084.06,339.83c8.07,5.72,32.06,36,37.36,44.8l.06.94c-1.92.08-3.82.13-5.71.38-5.9,0-11.16.51-15.55,4.85-11.92,11.77-9.77,38-23.07,52.21-12.9,13.82-37.52,8.05-54,16.14-30.85,15.18-26.59,60-71.15,60.46-31.33.35-46.38-9.79-73.24,17.08-25.58,25.59-36.74,54-78.85,54.1-19,0-39.09-8.3-57.72-5.56-24,3.54-34,32.91-57.92,35.69l-3,0c-.62-6.54-9.77-27.66-11.94-37.16-1.11-4.9-2.87-18.16-6.55-20.47l1.08-.78c15.85-.4,35.1-17.19,51.89-20.35,26.37-5,49.56,14.37,76.9,7.77,31.89-7.69,51.32-38.39,82.27-48.8,13.72-4.62,28-5.19,42.3-6.52,21.25-2,43.62-7.52,57.23-25.32,4.63-6.07,8.13-13.24,11.9-19.88,4.92-8.66,10.21-16.9,18.11-23.18,15-11.91,38.23-14.43,50.16-29.25,7.59-9.41,10.76-22.26,16.39-32.89,3.74-7.06,8.68-13.46,12.36-20.56A5.41,5.41,0,0,0,1084.06,339.83Z" transform="translate(0.31 -1.98)"/><path class="cls-27" d="M935.12,639.34c10.13,9.83,9.66,46.89,20.77,58.07,12,12.09,35.12,18.82,49.57,29.18l.76.57c-13,3.91-48.9,11.94-58,18.62-5.49,4-9.06,10.73-12.23,16.47-6,10.82-11.6,21.82-18.8,32-4.35-14.14-13.28-47.92-23.8-57.7s-35.26-21.18-48.82-29.79c14-3.65,51-10.78,60.25-19,5.41-4.78,8.86-12.36,12.39-18.48,5.55-9.63,10.72-19.78,17.18-28.88Z" transform="translate(0.31 -1.98)"/><path class="cls-28" d="M728.06,219.2c5.77,5.88,5.39,28.18,11.71,34.87,6.83,7.24,20,11.21,28.26,17.4l.44.34c-7.42,2.4-28,7.34-33.24,11.39-3.15,2.43-5.22,6.48-7.05,9.94-3.46,6.53-6.7,13.17-10.85,19.3-2.45-8.5-7.45-28.79-13.43-34.64S683.79,265.16,676.06,260c8-2.24,29.18-6.65,34.52-11.63,3.11-2.89,5.11-7.47,7.14-11.16,3.21-5.81,6.2-11.93,9.92-17.43Z" transform="translate(0.31 -1.98)"/><path class="cls-29" d="M1448.21,72.75c6.34,5.26,8.23,27.49,15.2,33.5,7.53,6.5,21.07,9.11,29.89,14.43l.47.29c-7.14,3.14-27.12,10.15-31.91,14.71-2.89,2.75-4.53,7-6,10.61-2.78,6.85-5.32,13.78-8.82,20.31-3.3-8.2-10.35-27.88-16.9-33.09s-21.29-10.52-29.51-14.84c7.76-3,28.35-9.59,33.16-15.09,2.8-3.2,4.32-8,6-11.83,2.6-6.11,5-12.5,8.09-18.35Z" transform="translate(0.31 -1.98)"/><path class="cls-28" d="M1750.75,243.37c2.36,4.94-3,17.38-.41,22.92,2.75,6,10.32,11.95,14.2,17.76l.2.31c-5.31-.75-19.65-3.77-23.93-3-2.57.48-4.81,2.18-6.78,3.61a119.71,119.71,0,0,1-11.34,7.8c.35-5.47,1.75-18.3-.77-23.28s-10-12.77-13.83-17.84c5.66,1,20.24,4.48,24.8,3.19,2.65-.76,5-2.77,7.12-4.27,3.38-2.37,6.69-5,10.32-7Z" transform="translate(0.31 -1.98)"/><path class="cls-29" d="M1557,671.28c1.71,8.06-10.56,26.68-8.81,35.71,1.89,9.78,10.9,20.21,14.53,29.85.07.17.13.34.19.51-7.55-2-27.58-8.82-34.17-8.2-4,.37-7.87,2.68-11.28,4.62-6.42,3.65-12.71,7.52-19.5,10.48,2.49-8.49,9.14-28.3,7.22-36.45s-10.2-21.44-14-29.93c8,2.41,28.19,10,35.38,8.69,4.17-.78,8.31-3.56,12-5.59,5.82-3.19,11.62-6.75,17.71-9.4Z" transform="translate(0.31 -1.98)"/><path class="cls-28" d="M507,79.87c5.77,5.88,5.39,28.18,11.71,34.87,6.83,7.24,20,11.22,28.26,17.41l.44.33c-7.42,2.4-28,7.34-33.24,11.39-3.15,2.44-5.22,6.48-7.05,9.94-3.46,6.53-6.7,13.17-10.85,19.3-2.45-8.5-7.45-28.79-13.44-34.64S462.68,125.84,455,120.7c8-2.24,29.18-6.65,34.52-11.63,3.11-2.89,5.11-7.46,7.14-11.16,3.21-5.81,6.2-11.93,9.92-17.43Z" transform="translate(0.31 -1.98)"/><path class="cls-29" d="M244.47,124.81c8.08-1.62,26.55,10.87,35.61,9.23,9.79-1.78,20.32-10.67,30-14.19l.52-.18c-2.05,7.53-9.15,27.47-8.61,34.07.33,4,2.59,7.91,4.49,11.33,3.58,6.47,7.37,12.8,10.25,19.62-8.46-2.58-28.19-9.47-36.36-7.64s-21.56,9.95-30.09,13.62c2.51-7.94,10.36-28.07,9.11-35.27-.74-4.18-3.48-8.35-5.46-12.08-3.12-5.85-6.61-11.7-9.19-17.82Z" transform="translate(0.31 -1.98)"/><path class="cls-30" d="M249.7,477.42c4,7.19-2.19,28.61,2.16,36.72,4.7,8.77,16.39,16.07,22.71,24.2l.34.44c-7.79.37-29-.26-35.07,2.27-3.68,1.53-6.73,4.9-9.4,7.75-5.06,5.4-9.92,11-15.53,15.79-.14-8.85.35-29.74-3.89-37s-16.09-17.47-22.21-24.45c8.33-.06,29.9,1.23,36.37-2.17,3.75-2,6.88-5.87,9.81-8.9,4.62-4.77,9.11-9.89,14.14-14.22Z" transform="translate(0.31 -1.98)"/><path class="cls-30" d="M206.66,880.16c4,7.19-2.19,28.62,2.15,36.73,4.7,8.77,16.39,16.07,22.72,24.2l.33.44c-7.79.36-29-.26-35.06,2.27-3.68,1.53-6.73,4.89-9.41,7.75-5,5.39-9.92,11-15.53,15.78-.13-8.84.36-29.73-3.89-37s-16.09-17.46-22.21-24.44c8.33-.06,29.91,1.23,36.37-2.17,3.76-2,6.88-5.87,9.82-8.9,4.61-4.77,9.1-9.89,14.14-14.22Z" transform="translate(0.31 -1.98)"/><path class="cls-29" d="M454.28,869.87c4.48,5.09,3.73,12,10,16.4,3.65,2.54,8.1,3.47,11.87,5.87l.47.31c-17.49,8-12.75,7-20.91,22.46l-.3.55c-4.85-2.88-4.71-12.32-9.21-16.2-3.56-3.06-8.81-4.7-13-6.77,3.27-1.75,6.66-3.28,9.93-5C450.35,883.6,452.1,877.15,454.28,869.87Z" transform="translate(0.31 -1.98)"/><path class="cls-29" d="M274.24,326.36c4.48,5.08,3.73,12,10,16.4,3.65,2.54,8.1,3.47,11.87,5.87.16.1.32.2.47.31-17.49,8-12.75,7-20.91,22.46l-.3.55c-4.85-2.88-4.71-12.32-9.21-16.2-3.56-3.06-8.81-4.7-13-6.77,3.27-1.75,6.66-3.28,9.93-5C270.31,340.09,272.06,333.64,274.24,326.36Z" transform="translate(0.31 -1.98)"/><path class="cls-30" d="M1537.08,498.57c1.56,6.59-2.34,12.35,1.16,19.19,2,4,5.53,6.87,7.73,10.75.1.16.19.33.28.5-19.19-1.17-14.57.24-29,10l-.53.35c-2.93-4.82,1.62-13.09-.54-18.63-1.71-4.37-5.57-8.28-8.31-12.08,3.71,0,7.42.23,11.13.21C1527.16,508.85,1531.73,504,1537.08,498.57Z" transform="translate(0.31 -1.98)"/><path class="cls-27" d="M600.23,836.51c.28,11.06-19.79,29.5-19.71,41.83.09,13.33,9.1,30.62,11.44,44.54,0,.25.07.5.11.74-9.15-5.81-33.05-23.36-41.59-25.46-5.14-1.27-10.68,0-15.47,1-9.06,1.86-18,4-27.35,4.86,5.19-9.77,18.37-32.19,17.86-43.46s-7.91-31.9-10.7-44.41c9.58,6.58,33.55,25.19,43,26.62,5.51.84,11.45-.92,16.64-1.89,8.18-1.52,16.42-3.54,24.81-4.26Z" transform="translate(0.31 -1.98)"/><text class="cls-31" transform="matrix(1, -0.07, 0.07, 1, 703.43, 786.75)">L</text><text class="cls-32" transform="matrix(1, -0.07, 0.07, 1, 711.09, 769.53)">L</text></svg>