<svg id="Слой_1" data-name="Слой 1" xmlns="http://www.w3.org/2000/svg" viewBox="0 0 1024 1024"><defs><style>.cls-1{fill:#191919;}.cls-2,.cls-5,.cls-6,.cls-7,.cls-8,.cls-9{fill:#fefdfc;}.cls-3{fill:#b3b3b3;}.cls-4{fill:#ccc;}.cls-5{opacity:0.15;}.cls-6{opacity:0.33;}.cls-7{opacity:0.13;}.cls-8{opacity:0.21;}.cls-9{opacity:0.36;}.cls-10{fill:gray;}.cls-11,.cls-12{font-size:519.13px;font-family:Mynerve-Regular, Mynerve;}.cls-11{fill:#4d4d4d;}.cls-12{fill:#fff;}</style></defs><path class="cls-1" d="M0,0H1024V1024H0Z"/><path class="cls-2" d="M836.32,437.19l.57.16a3.8,3.8,0,0,1,2.74,2.35,5.13,5.13,0,0,1-1.41,3.25c-1.38-.61-2.06-.84-2.86-2.19C835.13,439.27,835.65,438.45,836.32,437.19Z"/><path class="cls-3" d="M708.32,748.19l.57.16a3.8,3.8,0,0,1,2.74,2.35,5.13,5.13,0,0,1-1.41,3.25c-1.38-.61-2.06-.84-2.86-2.19C707.13,750.27,707.65,749.45,708.32,748.19Z"/><path class="cls-2" d="M703.66,250.25a4.55,4.55,0,0,1,1.16.1,3.53,3.53,0,0,1,2.51,1.69c-.14,1.81-.58,2.19-1.63,3.63a4.65,4.65,0,0,1-3.3-1.69C702.35,252.16,702.76,251.77,703.66,250.25Z"/><path class="cls-2" d="M726.1,210.65a3.85,3.85,0,0,1,.49.08,4.74,4.74,0,0,1,3.29,2.26c.11,1.51-.49,2.26-1.28,3.46a10.71,10.71,0,0,1-1.61-.15,3.21,3.21,0,0,1-2.32-1.77C724.6,212.82,725.21,212,726.1,210.65Z"/><path class="cls-2" d="M888.1,216.65a3.85,3.85,0,0,1,.49.08,4.74,4.74,0,0,1,3.29,2.26c.11,1.51-.49,2.26-1.28,3.46a10.71,10.71,0,0,1-1.61-.15,3.21,3.21,0,0,1-2.32-1.77C886.6,218.82,887.21,218,888.1,216.65Z"/><path class="cls-1" d="M596.06,173.43a5.68,5.68,0,0,1,4.21,1.34,4,4,0,0,1,1.35,3.32c-.19,2.07-1.46,3-3,4.13a6.65,6.65,0,0,1-3.9-1.08,3.52,3.52,0,0,1-1.5-2.94C593.22,176,594.57,174.78,596.06,173.43Z"/><path class="cls-1" d="M784.7,293.41c1.92.4,3.45.85,4.61,2.59a4.64,4.64,0,0,1,.59,3.77c-.44,2.13-2.11,3-3.85,4-.29,0-.59,0-.89-.08-1.73-.2-3.24-.58-4.24-2.19a3.87,3.87,0,0,1-.48-3C781,295.81,782.49,294.78,784.7,293.41Z"/><path class="cls-2" d="M908.2,464.74a18.46,18.46,0,0,1,3.44,5.3c5.08,10.14,7.25,11.33,17,16.46-9.82,4-12.23,6.24-17.16,15.73-.89,1.73-1.57,3.41-3,4.74-.87-2-1.8-4-2.77-5.92-4.45-8.69-9.89-11.53-18.84-14.41,2.66-1.24,5.46-2.19,8.14-3.4C903.13,479.59,905.25,472.36,908.2,464.74Z"/><path class="cls-4" d="M857.2,753.74a18.46,18.46,0,0,1,3.44,5.3c5.08,10.14,7.25,11.33,17,16.46-9.82,4-12.23,6.24-17.16,15.73-.89,1.73-1.57,3.41-3,4.74-.87-2-1.8-4-2.77-5.92-4.45-8.69-9.89-11.53-18.84-14.41,2.66-1.24,5.46-2.19,8.14-3.4C852.13,768.59,854.25,761.36,857.2,753.74Z"/><path class="cls-2" d="M848.2,83.74a18.46,18.46,0,0,1,3.44,5.3c5.08,10.14,7.25,11.33,17,16.46-9.82,4-12.23,6.24-17.16,15.73-.89,1.73-1.57,3.41-3,4.74-.87-2-1.8-4-2.77-5.92-4.45-8.69-9.89-11.53-18.84-14.41,2.66-1.24,5.46-2.19,8.14-3.4C843.13,98.59,845.25,91.36,848.2,83.74Z"/><path class="cls-2" d="M624,59.31c4.48,5.09,3.73,12,10,16.4,3.65,2.55,8.1,3.48,11.87,5.87l.47.32c-17.49,8-12.75,7-20.91,22.45l-.3.56c-4.85-2.88-4.71-12.32-9.22-16.2-3.55-3.06-8.8-4.7-13-6.78,3.28-1.74,6.67-3.27,9.94-5C620.05,73,621.8,66.6,624,59.31Z"/><path class="cls-5" d="M456,23.31c4.48,5.09,3.73,12,10,16.4,3.65,2.55,8.1,3.48,11.87,5.87l.47.32c-17.49,8-12.75,7-20.91,22.45l-.3.56c-4.85-2.88-4.71-12.32-9.22-16.2-3.55-3.06-8.8-4.7-13-6.78,3.28-1.74,6.67-3.27,9.94-5C452.05,37,453.8,30.6,456,23.31Z"/><path class="cls-2" d="M160.93-1.93c6.75-.57,11.87,4.15,19.15,1.7,4.22-1.42,7.62-4.44,11.78-6l.54-.2c-4,18.8-1.93,14.45,5.6,30.17l.26.57c-5.2,2.19-12.7-3.55-18.5-2.23-4.58,1-9,4.27-13.19,6.42.55-3.68,1.34-7.31,1.87-11C169.62,9.41,165.49,4.16,160.93-1.93Z"/><path class="cls-2" d="M43,604.31c4.48,5.09,3.73,12,10,16.4,3.65,2.55,8.1,3.48,11.87,5.87l.47.32c-17.49,8-12.75,7-20.91,22.45l-.3.56c-4.85-2.88-4.71-12.32-9.22-16.2-3.55-3.06-8.8-4.7-13-6.78,3.28-1.74,6.67-3.27,9.94-5C39.05,618,40.8,611.6,43,604.31Z"/><path class="cls-2" d="M215.46,699a14.64,14.64,0,0,1,2.73-.07,6,6,0,0,1,4.06,2.34,5.55,5.55,0,0,1,1,4.49c-.47,2.43-1.9,3.79-3.92,5.06-2.36,0-4.51-.19-6.21-2a5.32,5.32,0,0,1-1.42-4.32C212,701.85,213.49,700.57,215.46,699Z"/><path class="cls-2" d="M604.07,833a10,10,0,0,1,3.21.44,6.92,6.92,0,0,1,3.64,3.52,5.73,5.73,0,0,1,.13,4.59c-.81,2-2.17,2.73-4,3.56-.41,0-.83,0-1.24-.07a6.58,6.58,0,0,1-5.08-2.47,5.29,5.29,0,0,1-.91-4.27C600.3,835.66,602,834.35,604.07,833Z"/><path class="cls-2" d="M381.55,721a6.48,6.48,0,0,1,2.57.44,6.3,6.3,0,0,1,2.91,3.52,7.08,7.08,0,0,1,.1,4.59,5.58,5.58,0,0,1-3.24,3.56c-.32,0-.65,0-1-.07a4.94,4.94,0,0,1-4.06-2.47,6.38,6.38,0,0,1-.73-4.27C378.54,723.66,379.86,722.35,381.55,721Z"/><path class="cls-2" d="M438.57,821.43a10.61,10.61,0,0,1,3.93.19,6.35,6.35,0,0,1,3.52,3.22c.09.19.17.39.25.59a6.17,6.17,0,0,1,.19.61c.05.21.1.42.13.63s.05.43.06.64,0,.43,0,.64,0,.43-.06.64-.08.43-.13.63-.12.42-.19.62c-.79,2.18-2.15,3.12-4.17,4.08a21.49,21.49,0,0,1-2.66-.19,6.4,6.4,0,0,1-4.37-2.58,5.5,5.5,0,0,1-.83-4.38C434.81,824.16,436.45,822.85,438.57,821.43Z"/><path class="cls-2" d="M829.41,268.42a13.39,13.39,0,0,1,2.1,0,3.75,3.75,0,0,1,2.82,1.58c.3,1.76-.17,2.78-.85,4.39a8.23,8.23,0,0,1-2.75.13c-1.33-.36-1.53-.83-2.19-1.92A7.23,7.23,0,0,1,829.41,268.42Z"/><path class="cls-2" d="M357.63,207.38a6.1,6.1,0,0,1,3.09.72,3.15,3.15,0,0,1,1.41,2.85c0,1.53-1.1,2.71-2,3.82a5.71,5.71,0,0,1-3.31-1,3.18,3.18,0,0,1-1.28-2.78C355.56,209.49,356.65,208.44,357.63,207.38Z"/><path class="cls-2" d="M363.08,124.82a6,6,0,0,1,3.1.42,3.24,3.24,0,0,1,1.6,2.72c.09,1.58-.8,2.86-1.64,4.1-1.23.08-2.7.27-3.78-.51a2.81,2.81,0,0,1-1.26-1.86C360.78,127.6,361.87,126.35,363.08,124.82Z"/><path class="cls-2" d="M676,386.82a6.11,6.11,0,0,1,2.86.82,3.65,3.65,0,0,1,1.71,2.94c.1,2.13-1,3.53-2.29,5.08a6.73,6.73,0,0,1-3.39-1.61,3.93,3.93,0,0,1-1.3-3.27C673.76,389,674.82,388,676,386.82Z"/><path class="cls-2" d="M610.21,227.88c1.42,0,2.88-.1,4,1a3.68,3.68,0,0,1,1.14,3.14c-.11,1.56-1.11,2.62-2.11,3.7a7.4,7.4,0,0,1-4-1.16,3.28,3.28,0,0,1-1.39-2.95C607.88,230.05,609.23,228.88,610.21,227.88Z"/><path class="cls-2" d="M140.56,816.79a6.51,6.51,0,0,1,3.56.76,3.84,3.84,0,0,1,1.82,3c.19,2.08-.81,3.37-2.11,4.81a10,10,0,0,1-3.07-.65,4.28,4.28,0,0,1-2.46-3C138,819.58,139.28,818.21,140.56,816.79Z"/><path class="cls-2" d="M361.14,375.4a6.36,6.36,0,0,1,4.37.93,4.11,4.11,0,0,1,1.7,3.37c.11,2.12-1.14,3.44-2.56,4.77a7.21,7.21,0,0,1-4.26-1.05,4,4,0,0,1-1.82-3.15C358.46,378.07,359.73,376.85,361.14,375.4Z"/><path class="cls-2" d="M279.58,266.37c.52.05,1,.09,1.55.19a5.07,5.07,0,0,1,.56.13,4.3,4.3,0,0,1,.54.2,3.6,3.6,0,0,1,.52.26,4.56,4.56,0,0,1,.92.68,3.85,3.85,0,0,1,.4.41,3.73,3.73,0,0,1,.35.46,5.09,5.09,0,0,1,.3.5,4.29,4.29,0,0,1,.26,3.26c-.53,1.86-1.79,2.64-3.36,3.55-1.71-.27-3.24-.5-4.48-1.87a3.82,3.82,0,0,1-1-3.37C276.37,268.64,278,267.5,279.58,266.37Z"/><path class="cls-2" d="M145.57,711.41c2,.08,3.6.32,5,1.83a4.32,4.32,0,0,1,1.21,3.52c-.25,2.22-1.52,3.24-3.19,4.45l-.44,0c-2.06,0-3.89-.24-5.28-2a4.23,4.23,0,0,1-.83-3.43C142.42,713.59,143.84,712.64,145.57,711.41Z"/><path class="cls-2" d="M867.57,576.41c2,.08,3.6.32,5,1.83a4.32,4.32,0,0,1,1.21,3.52c-.25,2.22-1.52,3.24-3.19,4.45l-.44,0c-2.06,0-3.89-.24-5.28-2a4.23,4.23,0,0,1-.83-3.43C864.42,578.59,865.84,577.64,867.57,576.41Z"/><path class="cls-2" d="M157.51,485.53c2,.54,3.65,1,4.69,3a4.88,4.88,0,0,1,.2,3.94c-.81,2.16-2.21,2.89-4.25,3.72l-.2-.07c-1.91-.63-3.46-1.14-4.5-3a4.41,4.41,0,0,1-.31-4C154,487.16,155.65,486.38,157.51,485.53Z"/><path class="cls-2" d="M178,196.45a17.67,17.67,0,0,1,2.3.06,5.54,5.54,0,0,1,3.89,2.29,4.88,4.88,0,0,1,.85,3.9c-.48,2.39-2,3.59-3.91,4.88l-.67,0a6.8,6.8,0,0,1-5.29-2.49,5,5,0,0,1-.88-4.28C174.67,198.67,176.31,197.56,178,196.45Z"/><path class="cls-2" d="M769.1,639.56a15.66,15.66,0,0,1,5.91.19,9,9,0,0,1,1,.37c.34.14.66.3,1,.47s.63.37.93.57.59.43.87.67.54.49.79.75a9.41,9.41,0,0,1,.71.83c.22.29.43.59.62.9s.37.62.53,1,.3.69.42,1a9.61,9.61,0,0,1,.32,1.08,10.83,10.83,0,0,1,.21,1.11,11.52,11.52,0,0,1,.07,2.25,10.37,10.37,0,0,1-.13,1.12c-.07.37-.15.74-.25,1.1s-.22.72-.35,1.07c-1.39,3.54-3.92,5.42-7.27,6.91a17,17,0,0,1-5.28-.31,11.31,11.31,0,0,1-7.12-5.44c-.17-.32-.32-.65-.46-1a10.16,10.16,0,0,1-.34-1,10.64,10.64,0,0,1-.37-2.13c0-.36,0-.72,0-1.08s.05-.72.1-1.07.13-.71.22-1.06a9.49,9.49,0,0,1,.33-1C763,643.07,765.63,641.24,769.1,639.56Z"/><path class="cls-2" d="M123.18,296.71c3.55,2.08,5.6,16,10.89,20.21,4.78,3.78,12.47,5.71,18,8.28C127.75,337.77,135,329.42,124,354.39c-1.19-.15-6.59-14.69-8-17-4.13-6.57-13.76-8.05-20.16-11.74l-.59-.34c4.14-1.85,8.49-3.15,12.64-4.94C117.26,316.36,119.65,305.44,123.18,296.71Z"/><path class="cls-2" d="M818.86,307.31c6.34,5.27,8.23,27.49,15.19,33.5,7.54,6.5,21.07,9.11,29.9,14.43l.46.29c-7.13,3.14-27.11,10.15-31.9,14.72-2.89,2.74-4.53,7-6,10.61-2.78,6.84-5.32,13.78-8.82,20.3-3.31-8.2-10.35-27.88-16.9-33.09s-21.29-10.52-29.51-14.84c7.75-3,28.35-9.59,33.16-15.09,2.8-3.19,4.32-7.94,6-11.82,2.6-6.11,5-12.51,8.09-18.35Z"/><path class="cls-6" d="M1052.64,393.8c4,7.19-2.19,28.61,2.16,36.73,4.7,8.77,16.39,16.07,22.71,24.2l.33.44c-7.79.36-28.95-.26-35.06,2.27-3.68,1.53-6.73,4.89-9.41,7.75-5,5.39-9.91,10.95-15.52,15.78-.14-8.84.35-29.73-3.89-37s-16.1-17.46-22.21-24.44c8.33-.06,29.9,1.23,36.37-2.18,3.75-2,6.88-5.86,9.81-8.89,4.62-4.77,9.11-9.89,14.14-14.22Z"/><path class="cls-2" d="M861.39,774.52c8.24-.28,24.43,15.06,33.63,14.91,10-.16,21.8-7.21,31.92-9.1l.54-.1c-3.24,7.1-13.49,25.62-14,32.21-.32,4,1.27,8.23,2.58,11.91,2.48,7,5.19,13.83,6.92,21-7.92-3.93-26.27-13.94-34.63-13.48s-22.9,6.31-31.9,8.55c3.76-7.43,14.79-26,14.73-33.32,0-4.25-2.07-8.81-3.42-12.81-2.12-6.28-4.62-12.62-6.16-19.08Z"/><path class="cls-7" d="M591.39,568.52c8.24-.28,24.43,15.06,33.63,14.91,10-.16,21.8-7.21,31.92-9.1l.54-.1c-3.24,7.1-13.49,25.62-14,32.21-.32,4,1.27,8.23,2.58,11.91,2.48,7,5.19,13.83,6.92,21-7.92-3.93-26.27-13.94-34.63-13.48s-22.9,6.31-31.9,8.55c3.76-7.43,14.79-26,14.73-33.32,0-4.25-2.07-8.81-3.42-12.81-2.12-6.28-4.62-12.62-6.16-19.08Z"/><path class="cls-2" d="M891.44,764.3c6.49,5.07,9.06,27.23,16.2,33,7.73,6.27,21.34,8.47,30.32,13.52l.47.27c-7,3.36-26.79,11-31.44,15.68-2.81,2.83-4.32,7.11-5.68,10.78-2.57,6.93-4.9,13.94-8.2,20.56-3.55-8.09-11.19-27.55-17.9-32.56s-21.6-9.87-29.94-13.94c7.66-3.28,28.05-10.44,32.69-16.08,2.7-3.28,4.08-8.08,5.61-12,2.41-6.18,4.56-12.64,7.53-18.58Z"/><path class="cls-5" d="M433.44,544.3c6.49,5.07,9.06,27.23,16.2,33,7.73,6.27,21.34,8.47,30.32,13.52l.47.27c-7,3.36-26.79,11-31.44,15.68-2.81,2.83-4.32,7.11-5.68,10.78-2.57,6.93-4.9,13.94-8.2,20.56-3.55-8.09-11.19-27.55-17.9-32.56s-21.6-9.87-29.94-13.94c7.66-3.28,28.05-10.44,32.69-16.08,2.7-3.28,4.08-8.08,5.61-12,2.41-6.18,4.56-12.64,7.53-18.58Z"/><path class="cls-2" d="M988,98c8.08-1.62,26.56,10.87,35.61,9.23,9.79-1.78,20.33-10.66,30-14.18.17-.07.34-.12.52-.18-2,7.52-9.14,27.47-8.61,34.06.33,4,2.59,7.91,4.49,11.34,3.58,6.46,7.37,12.8,10.25,19.62-8.46-2.59-28.19-9.47-36.36-7.65s-21.56,10-30.09,13.63c2.51-7.94,10.36-28.08,9.11-35.28-.73-4.18-3.47-8.35-5.45-12.07-3.12-5.86-6.62-11.71-9.2-17.83Z"/><path class="cls-8" d="M416,307c8.08-1.62,26.56,10.87,35.61,9.23,9.79-1.78,20.33-10.66,30-14.18.17-.07.34-.12.52-.18-2.05,7.52-9.14,27.47-8.61,34.06.33,4,2.59,7.91,4.49,11.34,3.58,6.46,7.37,12.8,10.25,19.62-8.46-2.59-28.19-9.47-36.36-7.65s-21.56,9.95-30.09,13.63c2.51-7.94,10.36-28.08,9.11-35.28-.73-4.18-3.47-8.35-5.45-12.07-3.12-5.86-6.62-11.71-9.2-17.83Z"/><path class="cls-2" d="M299.7,816c1.71,8.05-10.56,26.68-8.81,35.71,1.89,9.77,10.9,20.2,14.53,29.84.07.17.13.35.19.52-7.55-2-27.58-8.82-34.16-8.2-4,.37-7.88,2.68-11.29,4.61-6.42,3.66-12.71,7.53-19.5,10.48,2.49-8.48,9.14-28.29,7.22-36.44s-10.2-21.45-14-29.93c8,2.41,28.19,10,35.38,8.69,4.17-.78,8.31-3.57,12-5.59,5.82-3.19,11.62-6.76,17.71-9.4Z"/><path class="cls-9" d="M66.69,115.63c4.48,4.6,4.23,22.13,9.13,27.36,5.32,5.66,15.55,8.73,21.94,13.57.12.08.23.17.34.26-5.75,1.91-21.7,5.87-25.74,9.08-2.44,1.93-4,5.12-5.45,7.84A161.58,161.58,0,0,1,58.53,189c-1.91-6.67-5.82-22.59-10.47-27.17s-15.61-9.85-21.61-13.86c6.21-1.79,22.61-5.34,26.74-9.27,2.4-2.29,4-5.89,5.52-8.8,2.47-4.58,4.78-9.4,7.66-13.74Z"/><path class="cls-10" d="M697.7,972c1.71,8.05-10.56,26.68-8.81,35.71,1.89,9.77,10.9,20.2,14.53,29.84.07.17.13.35.19.52-7.55-2-27.58-8.82-34.16-8.2-4,.37-7.88,2.68-11.29,4.61-6.42,3.66-12.71,7.53-19.5,10.48,2.49-8.48,9.14-28.29,7.22-36.44s-10.2-21.45-14-29.93c8,2.41,28.19,10,35.38,8.69,4.17-.78,8.31-3.57,12-5.59,5.82-3.19,11.62-6.76,17.71-9.4Z"/><path class="cls-2" d="M177.82,587.41c1.75,0,3.3-.08,4.74,1.07a3.85,3.85,0,0,1,1.37,3.21c0,1.56-1.21,3-2.18,4-1.65,0-3.57,0-4.84-1.2a3.88,3.88,0,0,1-1.29-3.24C175.72,589.67,176.77,588.54,177.82,587.41Z"/><text class="cls-11" transform="translate(375.94 649.89) rotate(-4.28) scale(0.98 1)">L</text><text class="cls-12" transform="translate(386.94 637.89) rotate(-4.28) scale(0.98 1)">L</text></svg>